<svg width="4212" height="816" viewBox="0 0 4212 816" fill="none" xmlns="http://www.w3.org/2000/svg">
<g clip-path="url(#clip0)">
<g filter="url(#filter0_d)">
<rect x="1906.15" y="68.3848" width="556.319" height="556.319" rx="54" transform="rotate(14.5507 1906.15 68.3848)" fill="white"/>
<rect x="1874.55" y="14.6299" width="644.502" height="644.502" rx="89" transform="rotate(14.5507 1874.55 14.6299)" stroke="white" stroke-width="24"/>
<path d="M2070.83 457.038L2096.75 356.156L2025.75 426.377L2008.22 421.829L1980.01 328.161L1954.4 426.819L1917.92 417.349L1961.53 249.317L1993.7 257.666L2029.49 378.41L2118.52 290.065L2150.45 298.352L2107.31 466.509L2070.83 457.038ZM2205.49 494.042C2191.89 490.511 2180.37 484.533 2170.95 476.107C2161.72 467.563 2155.37 457.461 2151.91 445.801C2148.44 434.14 2148.37 421.909 2151.7 409.106C2155.02 396.304 2161.03 385.651 2169.73 377.147C2178.43 368.644 2188.86 362.983 2201.04 360.165C2213.42 357.229 2226.41 357.526 2240.01 361.056C2253.61 364.587 2265.03 370.625 2274.25 379.169C2283.52 387.553 2289.89 397.575 2293.35 409.235C2296.82 420.896 2296.89 433.127 2293.56 445.93C2290.24 458.732 2284.23 469.385 2275.53 477.888C2266.83 486.392 2256.38 492.133 2244.16 495.111C2231.98 497.929 2219.09 497.572 2205.49 494.042ZM2213.47 463.316C2223.07 465.808 2231.74 464.643 2239.48 459.82C2247.43 454.879 2252.81 446.967 2255.64 436.085C2258.46 425.203 2257.58 415.751 2253 407.73C2248.63 399.591 2241.64 394.275 2232.03 391.782C2222.43 389.29 2213.66 390.515 2205.72 395.456C2197.81 400.237 2192.45 408.069 2189.62 418.951C2186.8 429.833 2187.66 439.365 2192.19 447.546C2196.77 455.567 2203.87 460.824 2213.47 463.316Z" fill="#00126F"/>
<path d="M1871.86 525.344L1874.91 513.491L1866.47 521.838L1865.41 521.56L1862.07 510.232L1859.02 522.01L1856.79 521.431L1861.01 505.17L1862.91 505.664L1866.73 518.854L1876.38 509.161L1878.29 509.656L1874.09 525.923L1871.86 525.344ZM1912.4 536.064C1910.76 535.638 1909.37 534.898 1908.24 533.844C1907.11 532.774 1906.33 531.506 1905.9 530.039C1905.49 528.576 1905.49 527.063 1905.89 525.499C1906.3 523.934 1907.04 522.614 1908.11 521.537C1909.2 520.464 1910.49 519.742 1912 519.371C1913.5 518.985 1915.07 519.005 1916.72 519.431C1918.34 519.853 1919.72 520.599 1920.85 521.669C1921.98 522.723 1922.75 523.981 1923.16 525.444C1923.58 526.891 1923.59 528.405 1923.18 529.985C1922.77 531.564 1922.02 532.893 1920.95 533.97C1919.88 535.031 1918.6 535.755 1917.09 536.141C1915.59 536.512 1914.03 536.486 1912.4 536.064ZM1912.94 533.997C1914.13 534.306 1915.27 534.312 1916.35 534.016C1917.45 533.723 1918.4 533.174 1919.18 532.37C1919.99 531.555 1920.55 530.559 1920.85 529.382C1921.16 528.205 1921.16 527.071 1920.84 525.982C1920.55 524.881 1919.99 523.935 1919.17 523.144C1918.37 522.357 1917.37 521.808 1916.18 521.499C1914.99 521.189 1913.83 521.179 1912.72 521.468C1911.62 521.76 1910.66 522.315 1909.85 523.13C1909.07 523.934 1908.52 524.925 1908.22 526.102C1907.91 527.279 1907.9 528.417 1908.2 529.518C1908.51 530.608 1909.07 531.548 1909.89 532.339C1910.73 533.135 1911.74 533.687 1912.94 533.997ZM1954.97 529.559L1957.29 530.162L1953.6 544.402L1962.4 546.687L1961.88 548.708L1950.75 545.82L1954.97 529.559ZM1996.66 551.736L1995.2 557.358L1992.9 556.761L1994.37 551.093L1990.66 538.824L1993.15 539.469L1996.13 549.391L2003.58 542.176L2005.88 542.773L1996.66 551.736ZM2043.01 560.766C2043.88 561.275 2044.5 561.948 2044.86 562.785C2045.23 563.607 2045.28 564.545 2045 565.598C2044.64 567.007 2043.82 567.953 2042.56 568.434C2041.31 568.92 2039.67 568.899 2037.64 568.373L2029.88 566.359L2034.1 550.098L2041.39 551.991C2043.25 552.473 2044.59 553.217 2045.4 554.221C2046.23 555.23 2046.47 556.393 2046.13 557.709C2045.91 558.561 2045.52 559.244 2044.96 559.759C2044.41 560.278 2043.76 560.614 2043.01 560.766ZM2035.93 552.582L2034.58 557.786L2039.35 559.022C2040.54 559.331 2041.51 559.352 2042.26 559.083C2043.02 558.803 2043.52 558.237 2043.74 557.385C2043.96 556.533 2043.8 555.806 2043.26 555.203C2042.74 554.59 2041.89 554.128 2040.7 553.818L2035.93 552.582ZM2038.03 566.467C2039.35 566.809 2040.4 566.849 2041.17 566.588C2041.95 566.327 2042.46 565.732 2042.7 564.803C2043.17 562.991 2042.09 561.742 2039.44 561.054L2034.09 559.667L2032.69 565.08L2038.03 566.467ZM2077.81 561.444L2084.67 563.223C2086.39 563.669 2087.82 564.406 2088.98 565.433C2090.13 566.46 2090.91 567.688 2091.32 569.116C2091.75 570.532 2091.75 572.038 2091.34 573.633C2090.92 575.228 2090.18 576.549 2089.12 577.595C2088.07 578.629 2086.8 579.314 2085.29 579.65C2083.78 579.986 2082.17 579.931 2080.45 579.484L2073.59 577.706L2077.81 561.444ZM2080.83 577.427C2082.15 577.769 2083.37 577.813 2084.49 577.559C2085.63 577.309 2086.59 576.798 2087.37 576.025C2088.15 575.236 2088.7 574.238 2089.01 573.03C2089.33 571.822 2089.33 570.691 2089.03 569.636C2088.73 568.567 2088.14 567.645 2087.27 566.873C2086.41 566.105 2085.32 565.55 2084 565.208L2079.61 564.068L2076.44 576.288L2080.83 577.427ZM2131.25 590.513L2130.72 592.534L2118.92 589.47L2123.14 573.209L2134.62 576.188L2134.09 578.209L2124.94 575.833L2123.64 580.828L2131.8 582.944L2131.28 584.919L2123.13 582.802L2121.77 588.052L2131.25 590.513ZM2178.82 587.662L2174.6 603.923L2172.7 603.429L2166.09 588.77L2162.94 600.896L2160.62 600.293L2164.84 584.032L2166.74 584.527L2173.35 599.185L2176.5 587.059L2178.82 587.662ZM2212.29 613.904C2210.12 613.342 2208.6 612.284 2207.71 610.731C2206.82 609.179 2206.68 607.241 2207.28 604.918L2209.68 595.673L2212.01 596.275L2209.63 605.428C2208.73 608.913 2209.8 611.051 2212.85 611.843C2214.34 612.229 2215.59 612.098 2216.6 611.452C2217.61 610.789 2218.35 609.575 2218.81 607.81L2221.18 598.657L2223.44 599.242L2221.04 608.488C2220.43 610.826 2219.36 612.458 2217.83 613.384C2216.31 614.293 2214.46 614.467 2212.29 613.904ZM2265.19 627.436L2268.24 615.583L2259.8 623.93L2258.73 623.653L2255.4 612.324L2252.34 624.102L2250.11 623.523L2254.33 607.262L2256.24 607.756L2260.05 620.946L2269.71 611.253L2271.62 611.748L2267.42 628.015L2265.19 627.436Z" fill="#00126F"/>
<path d="M1979.85 162.031L1974.55 160.656L1972.78 167.485L1965.44 165.58L1967.21 158.75L1949.69 154.204L1951.01 149.14L1971.69 132.491L1979.59 134.541L1960.3 150.411L1969.03 152.678L1970.61 146.592L1977.72 148.437L1976.14 154.523L1981.44 155.898L1979.85 162.031ZM2006.12 169.595L2004.53 175.728L1979.95 169.349L1981.22 164.47L1996.84 155.879C1998.5 154.955 1999.68 154.104 2000.38 153.326C2001.08 152.517 2001.55 151.664 2001.79 150.766C2002.12 149.465 2001.93 148.357 2001.21 147.443C2000.53 146.505 1999.34 145.815 1997.63 145.373C1996.21 145.003 1994.85 144.948 1993.56 145.208C1992.28 145.438 1991.11 145.994 1990.05 146.877L1985.49 141.923C1987.25 140.363 1989.38 139.346 1991.88 138.872C1994.39 138.366 1997.09 138.488 1999.97 139.235C2002.39 139.862 2004.39 140.812 2005.97 142.083C2007.6 143.332 2008.72 144.813 2009.33 146.526C2009.99 148.216 2010.06 150.037 2009.55 151.988C2009.09 153.754 2008.29 155.314 2007.15 156.67C2006 158.026 2004.1 159.417 2001.45 160.845L1992.14 165.965L2006.12 169.595Z" fill="#00126F"/>
</g>
<rect x="2693.74" y="245.724" width="324.553" height="324.553" rx="54" fill="white"/>
<rect x="2645.01" y="197" width="422" height="422" rx="89" stroke="white" stroke-width="24"/>
<path d="M2830.5 419.69H2783.7L2774.77 441.29H2750.86L2795.79 340.49H2818.83L2863.9 441.29H2839.42L2830.5 419.69ZM2823.15 401.978L2807.17 363.386L2791.18 401.978H2823.15ZM2949.42 363.818V441.29H2928.11V432.074C2925.13 435.434 2921.58 438.026 2917.45 439.85C2913.32 441.578 2908.86 442.442 2904.06 442.442C2893.88 442.442 2885.82 439.514 2879.87 433.658C2873.92 427.802 2870.94 419.114 2870.94 407.594V363.818H2893.4V404.282C2893.4 416.762 2898.64 423.002 2909.1 423.002C2914.48 423.002 2918.8 421.274 2922.06 417.818C2925.32 414.266 2926.96 409.034 2926.96 402.122V363.818H2949.42Z" fill="#2DA7FF"/>
<path d="M2804.59 503.966H2805.93V509.039C2805.31 509.584 2804.58 510.002 2803.73 510.293C2802.88 510.585 2801.99 510.73 2801.05 510.73C2799.72 510.73 2798.52 510.439 2797.46 509.856C2796.4 509.274 2795.56 508.469 2794.95 507.443C2794.34 506.405 2794.04 505.246 2794.04 503.966C2794.04 502.687 2794.34 501.534 2794.95 500.508C2795.56 499.47 2796.4 498.659 2797.46 498.076C2798.52 497.494 2799.73 497.202 2801.07 497.202C2802.08 497.202 2803.01 497.367 2803.86 497.696C2804.71 498.013 2805.43 498.488 2806.01 499.121L2805.14 500.014C2804.09 498.976 2802.75 498.456 2801.13 498.456C2800.05 498.456 2799.08 498.697 2798.2 499.178C2797.34 499.647 2796.66 500.306 2796.17 501.154C2795.67 501.99 2795.43 502.928 2795.43 503.966C2795.43 505.005 2795.67 505.942 2796.17 506.778C2796.66 507.614 2797.34 508.273 2798.2 508.754C2799.06 509.236 2800.03 509.476 2801.11 509.476C2802.48 509.476 2803.64 509.134 2804.59 508.45V503.966ZM2838.53 510.73C2837.21 510.73 2836.01 510.439 2834.94 509.856C2833.87 509.261 2833.04 508.45 2832.43 507.424C2831.83 506.398 2831.54 505.246 2831.54 503.966C2831.54 502.687 2831.83 501.534 2832.43 500.508C2833.04 499.482 2833.87 498.678 2834.94 498.095C2836.01 497.5 2837.21 497.202 2838.53 497.202C2839.85 497.202 2841.03 497.494 2842.08 498.076C2843.14 498.659 2843.98 499.47 2844.59 500.508C2845.2 501.534 2845.5 502.687 2845.5 503.966C2845.5 505.246 2845.2 506.405 2844.59 507.443C2843.98 508.469 2843.14 509.274 2842.08 509.856C2841.03 510.439 2839.85 510.73 2838.53 510.73ZM2838.53 509.476C2839.58 509.476 2840.53 509.242 2841.38 508.773C2842.23 508.292 2842.89 507.633 2843.37 506.797C2843.85 505.949 2844.09 505.005 2844.09 503.966C2844.09 502.928 2843.85 501.99 2843.37 501.154C2842.89 500.306 2842.23 499.647 2841.38 499.178C2840.53 498.697 2839.58 498.456 2838.53 498.456C2837.48 498.456 2836.52 498.697 2835.66 499.178C2834.81 499.647 2834.14 500.306 2833.64 501.154C2833.16 501.99 2832.92 502.928 2832.92 503.966C2832.92 505.005 2833.16 505.949 2833.64 506.797C2834.14 507.633 2834.81 508.292 2835.66 508.773C2836.52 509.242 2837.48 509.476 2838.53 509.476ZM2871.45 497.316H2872.86V509.4H2880.31V510.616H2871.45V497.316ZM2905.44 497.316H2910.86C2912.26 497.316 2913.5 497.601 2914.58 498.171C2915.66 498.729 2916.49 499.514 2917.09 500.527C2917.68 501.528 2917.98 502.674 2917.98 503.966C2917.98 505.258 2917.68 506.411 2917.09 507.424C2916.49 508.425 2915.66 509.21 2914.58 509.78C2913.5 510.338 2912.26 510.616 2910.86 510.616H2905.44V497.316ZM2910.78 509.4C2911.95 509.4 2912.96 509.172 2913.84 508.716C2914.71 508.248 2915.39 507.608 2915.87 506.797C2916.35 505.974 2916.59 505.03 2916.59 503.966C2916.59 502.902 2916.35 501.965 2915.87 501.154C2915.39 500.331 2914.71 499.691 2913.84 499.235C2912.96 498.767 2911.95 498.532 2910.78 498.532H2906.85V509.4H2910.78Z" fill="#2DA7FF"/>
<path d="M2746.92 273.7V276.22L2740.68 290.5H2736.46L2742.48 276.868H2736.92V279.604H2733.46V273.7H2746.92ZM2754.56 273.412C2756.91 273.412 2758.75 274.132 2760.08 275.572C2761.41 276.996 2762.07 279.052 2762.07 281.74C2762.07 283.644 2761.71 285.276 2760.99 286.636C2760.29 287.996 2759.29 289.028 2757.99 289.732C2756.69 290.436 2755.2 290.788 2753.5 290.788C2752.61 290.788 2751.75 290.692 2750.93 290.5C2750.12 290.292 2749.42 290.004 2748.85 289.636L2750.29 286.78C2751.1 287.34 2752.15 287.62 2753.43 287.62C2754.85 287.62 2755.98 287.204 2756.81 286.372C2757.65 285.524 2758.09 284.308 2758.16 282.724C2757.15 283.732 2755.76 284.236 2753.98 284.236C2752.91 284.236 2751.93 284.02 2751.05 283.588C2750.17 283.156 2749.48 282.548 2748.97 281.764C2748.45 280.964 2748.2 280.044 2748.2 279.004C2748.2 277.884 2748.48 276.9 2749.04 276.052C2749.6 275.204 2750.36 274.556 2751.32 274.108C2752.29 273.644 2753.37 273.412 2754.56 273.412ZM2754.85 281.332C2755.69 281.332 2756.38 281.1 2756.91 280.636C2757.45 280.156 2757.73 279.548 2757.73 278.812C2757.73 278.076 2757.46 277.476 2756.93 277.012C2756.42 276.548 2755.71 276.316 2754.8 276.316C2753.97 276.316 2753.29 276.54 2752.76 276.988C2752.25 277.436 2751.99 278.044 2751.99 278.812C2751.99 279.58 2752.25 280.196 2752.76 280.66C2753.29 281.108 2753.98 281.332 2754.85 281.332Z" fill="#2DA7FF"/>
<rect x="3825.74" y="245.724" width="324.553" height="324.553" rx="54" fill="white"/>
<rect x="3777.01" y="197" width="422" height="422" rx="89" stroke="white" stroke-width="24"/>
<path d="M3984.48 340.2V441H3965.33L3915.07 379.8V441H3892.03V340.2H3911.33L3961.44 401.4V340.2H3984.48ZM4053.84 362.376C4063.44 362.376 4071.16 365.256 4077.02 371.016C4082.97 376.776 4085.95 385.32 4085.95 396.648V441H4063.48V400.104C4063.48 393.96 4062.14 389.4 4059.45 386.424C4056.76 383.352 4052.88 381.816 4047.79 381.816C4042.12 381.816 4037.61 383.592 4034.25 387.144C4030.89 390.6 4029.21 395.784 4029.21 402.696V441H4006.75V334.152H4029.21V371.592C4032.19 368.616 4035.79 366.36 4040.01 364.824C4044.24 363.192 4048.84 362.376 4053.84 362.376Z" fill="#2DA7FF"/>
<path d="M3868.01 497.7V511H3866.85L3858.3 500.208V511H3856.89V497.7H3858.05L3866.62 508.492V497.7H3868.01ZM3895.15 497.7H3896.56V511H3895.15V497.7ZM3934.8 497.7V511H3933.41V504.863H3925.09V511H3923.68V497.7H3925.09V503.628H3933.41V497.7H3934.8ZM3967.75 511.114C3966.44 511.114 3965.24 510.823 3964.16 510.24C3963.1 509.645 3962.26 508.834 3961.65 507.808C3961.06 506.782 3960.76 505.629 3960.76 504.35C3960.76 503.071 3961.06 501.918 3961.65 500.892C3962.26 499.866 3963.1 499.062 3964.16 498.479C3965.24 497.884 3966.44 497.586 3967.75 497.586C3969.07 497.586 3970.26 497.877 3971.31 498.46C3972.37 499.043 3973.21 499.853 3973.81 500.892C3974.42 501.918 3974.73 503.071 3974.73 504.35C3974.73 505.629 3974.42 506.788 3973.81 507.827C3973.21 508.853 3972.37 509.657 3971.31 510.24C3970.26 510.823 3969.07 511.114 3967.75 511.114ZM3967.75 509.86C3968.81 509.86 3969.76 509.626 3970.6 509.157C3971.45 508.676 3972.12 508.017 3972.6 507.181C3973.08 506.332 3973.32 505.389 3973.32 504.35C3973.32 503.311 3973.08 502.374 3972.6 501.538C3972.12 500.689 3971.45 500.031 3970.6 499.562C3969.76 499.081 3968.81 498.84 3967.75 498.84C3966.7 498.84 3965.75 499.081 3964.88 499.562C3964.04 500.031 3963.36 500.689 3962.87 501.538C3962.39 502.374 3962.15 503.311 3962.15 504.35C3962.15 505.389 3962.39 506.332 3962.87 507.181C3963.36 508.017 3964.04 508.676 3964.88 509.157C3965.75 509.626 3966.7 509.86 3967.75 509.86ZM4011.79 497.7V511H4010.63L4002.08 500.208V511H4000.68V497.7H4001.84L4010.41 508.492V497.7H4011.79ZM4038.93 497.7H4040.34V511H4038.93V497.7ZM4072.83 511.114C4071.1 511.114 4069.76 510.62 4068.8 509.632C4067.84 508.644 4067.35 507.206 4067.35 505.319V497.7H4068.76V505.262C4068.76 506.807 4069.11 507.96 4069.8 508.72C4070.5 509.48 4071.51 509.86 4072.83 509.86C4074.16 509.86 4075.17 509.48 4075.87 508.72C4076.56 507.96 4076.91 506.807 4076.91 505.262V497.7H4078.28V505.319C4078.28 507.206 4077.8 508.644 4076.83 509.632C4075.88 510.62 4074.55 511.114 4072.83 511.114ZM4119.13 497.7V511H4117.78V500.36L4112.55 509.309H4111.89L4106.66 500.417V511H4105.32V497.7H4106.47L4112.25 507.561L4117.97 497.7H4119.13Z" fill="#2DA7FF"/>
<path d="M3870.83 273.7V290.5H3866.95V276.82H3863.59V273.7H3870.83ZM3880.23 273.7V290.5H3876.34V276.82H3872.98V273.7H3880.23ZM3891 280.54C3892.47 280.78 3893.6 281.332 3894.38 282.196C3895.17 283.044 3895.56 284.1 3895.56 285.364C3895.56 286.34 3895.3 287.244 3894.79 288.076C3894.28 288.892 3893.49 289.548 3892.44 290.044C3891.4 290.54 3890.12 290.788 3888.6 290.788C3887.41 290.788 3886.25 290.636 3885.09 290.332C3883.96 290.012 3882.99 289.564 3882.19 288.988L3883.7 286.012C3884.34 286.492 3885.08 286.868 3885.91 287.14C3886.76 287.396 3887.62 287.524 3888.5 287.524C3889.48 287.524 3890.25 287.34 3890.81 286.972C3891.37 286.588 3891.65 286.052 3891.65 285.364C3891.65 283.988 3890.6 283.3 3888.5 283.3H3886.73V280.732L3890.18 276.82H3883.03V273.7H3894.79V276.22L3891 280.54Z" fill="#2DA7FF"/>
<rect x="3259.74" y="245.724" width="324.553" height="324.553" rx="54" fill="white"/>
<rect x="3211.01" y="197" width="422" height="422" rx="89" stroke="white" stroke-width="24"/>
<path d="M3395.46 441L3376.02 412.92H3374.87H3354.57V441H3331.24V340.2H3374.87C3383.8 340.2 3391.53 341.688 3398.05 344.664C3404.68 347.64 3409.77 351.864 3413.32 357.336C3416.87 362.808 3418.65 369.288 3418.65 376.776C3418.65 384.264 3416.82 390.744 3413.17 396.216C3409.62 401.592 3404.53 405.72 3397.91 408.6L3420.52 441H3395.46ZM3395.03 376.776C3395.03 371.112 3393.21 366.792 3389.56 363.816C3385.91 360.744 3380.58 359.208 3373.57 359.208H3354.57V394.344H3373.57C3380.58 394.344 3385.91 392.808 3389.56 389.736C3393.21 386.664 3395.03 382.344 3395.03 376.776ZM3482.63 362.376C3492.23 362.376 3499.96 365.256 3505.82 371.016C3511.77 376.776 3514.74 385.32 3514.74 396.648V441H3492.28V400.104C3492.28 393.96 3490.94 389.4 3488.25 386.424C3485.56 383.352 3481.67 381.816 3476.58 381.816C3470.92 381.816 3466.41 383.592 3463.05 387.144C3459.69 390.6 3458.01 395.784 3458.01 402.696V441H3435.54V363.528H3457V372.6C3459.98 369.336 3463.67 366.84 3468.09 365.112C3472.5 363.288 3477.35 362.376 3482.63 362.376Z" fill="#2DA7FF"/>
<path d="M3350.44 511L3347.4 506.725C3347.06 506.763 3346.7 506.782 3346.34 506.782H3342.76V511H3341.36V497.7H3346.34C3348.03 497.7 3349.36 498.105 3350.33 498.916C3351.29 499.727 3351.77 500.841 3351.77 502.26C3351.77 503.299 3351.5 504.179 3350.97 504.901C3350.45 505.61 3349.7 506.123 3348.73 506.44L3351.98 511H3350.44ZM3346.3 505.585C3347.61 505.585 3348.62 505.294 3349.32 504.711C3350.02 504.128 3350.36 503.311 3350.36 502.26C3350.36 501.183 3350.02 500.36 3349.32 499.79C3348.62 499.207 3347.61 498.916 3346.3 498.916H3342.76V505.585H3346.3ZM3386.23 507.447H3378.82L3377.22 511H3375.76L3381.84 497.7H3383.23L3389.31 511H3387.82L3386.23 507.447ZM3385.72 506.307L3382.52 499.163L3379.33 506.307H3385.72ZM3414.31 497.7H3419.72C3421.13 497.7 3422.37 497.985 3423.45 498.555C3424.52 499.112 3425.36 499.898 3425.95 500.911C3426.55 501.912 3426.85 503.058 3426.85 504.35C3426.85 505.642 3426.55 506.795 3425.95 507.808C3425.36 508.809 3424.52 509.594 3423.45 510.164C3422.37 510.721 3421.13 511 3419.72 511H3414.31V497.7ZM3419.65 509.784C3420.81 509.784 3421.83 509.556 3422.71 509.1C3423.58 508.631 3424.26 507.992 3424.74 507.181C3425.22 506.358 3425.46 505.414 3425.46 504.35C3425.46 503.286 3425.22 502.349 3424.74 501.538C3424.26 500.715 3423.58 500.075 3422.71 499.619C3421.83 499.15 3420.81 498.916 3419.65 498.916H3415.71V509.784H3419.65ZM3458.62 511.114C3457.3 511.114 3456.1 510.823 3455.03 510.24C3453.96 509.645 3453.13 508.834 3452.52 507.808C3451.92 506.782 3451.63 505.629 3451.63 504.35C3451.63 503.071 3451.92 501.918 3452.52 500.892C3453.13 499.866 3453.96 499.062 3455.03 498.479C3456.1 497.884 3457.3 497.586 3458.62 497.586C3459.94 497.586 3461.12 497.877 3462.17 498.46C3463.24 499.043 3464.07 499.853 3464.68 500.892C3465.29 501.918 3465.59 503.071 3465.59 504.35C3465.59 505.629 3465.29 506.788 3464.68 507.827C3464.07 508.853 3463.24 509.657 3462.17 510.24C3461.12 510.823 3459.94 511.114 3458.62 511.114ZM3458.62 509.86C3459.67 509.86 3460.62 509.626 3461.47 509.157C3462.32 508.676 3462.98 508.017 3463.46 507.181C3463.94 506.332 3464.19 505.389 3464.19 504.35C3464.19 503.311 3463.94 502.374 3463.46 501.538C3462.98 500.689 3462.32 500.031 3461.47 499.562C3460.62 499.081 3459.67 498.84 3458.62 498.84C3457.57 498.84 3456.61 499.081 3455.75 499.562C3454.9 500.031 3454.23 500.689 3453.74 501.538C3453.25 502.374 3453.01 503.311 3453.01 504.35C3453.01 505.389 3453.25 506.332 3453.74 507.181C3454.23 508.017 3454.9 508.676 3455.75 509.157C3456.61 509.626 3457.57 509.86 3458.62 509.86ZM3502.66 497.7V511H3501.5L3492.95 500.208V511H3491.54V497.7H3492.7L3501.27 508.492V497.7H3502.66Z" fill="#2DA7FF"/>
<path d="M3310.79 281.668C3311.62 282.084 3312.25 282.628 3312.68 283.3C3313.13 283.972 3313.35 284.748 3313.35 285.628C3313.35 286.668 3313.06 287.58 3312.47 288.364C3311.87 289.132 3311.04 289.732 3309.97 290.164C3308.9 290.58 3307.66 290.788 3306.25 290.788C3304.84 290.788 3303.6 290.58 3302.53 290.164C3301.47 289.732 3300.65 289.132 3300.06 288.364C3299.48 287.58 3299.19 286.668 3299.19 285.628C3299.19 284.748 3299.41 283.972 3299.84 283.3C3300.29 282.628 3300.92 282.084 3301.74 281.668C3301.11 281.284 3300.63 280.804 3300.3 280.228C3299.96 279.636 3299.79 278.964 3299.79 278.212C3299.79 277.236 3300.07 276.388 3300.61 275.668C3301.15 274.948 3301.91 274.396 3302.89 274.012C3303.87 273.612 3304.99 273.412 3306.25 273.412C3307.53 273.412 3308.66 273.612 3309.63 274.012C3310.63 274.396 3311.39 274.948 3311.94 275.668C3312.48 276.388 3312.75 277.236 3312.75 278.212C3312.75 278.964 3312.59 279.636 3312.25 280.228C3311.91 280.804 3311.43 281.284 3310.79 281.668ZM3306.25 276.268C3305.47 276.268 3304.83 276.46 3304.35 276.844C3303.89 277.212 3303.66 277.724 3303.66 278.38C3303.66 279.02 3303.89 279.524 3304.35 279.892C3304.82 280.26 3305.45 280.444 3306.25 280.444C3307.05 280.444 3307.69 280.26 3308.17 279.892C3308.65 279.524 3308.89 279.02 3308.89 278.38C3308.89 277.724 3308.65 277.212 3308.17 276.844C3307.69 276.46 3307.05 276.268 3306.25 276.268ZM3306.25 287.932C3307.23 287.932 3307.99 287.716 3308.55 287.284C3309.13 286.836 3309.42 286.244 3309.42 285.508C3309.42 284.772 3309.13 284.188 3308.55 283.756C3307.99 283.324 3307.23 283.108 3306.25 283.108C3305.29 283.108 3304.53 283.324 3303.97 283.756C3303.41 284.188 3303.13 284.772 3303.13 285.508C3303.13 286.26 3303.41 286.852 3303.97 287.284C3304.53 287.716 3305.29 287.932 3306.25 287.932ZM3323.22 279.964C3324.29 279.964 3325.27 280.18 3326.15 280.612C3327.03 281.044 3327.73 281.66 3328.24 282.46C3328.75 283.244 3329.01 284.156 3329.01 285.196C3329.01 286.316 3328.73 287.3 3328.17 288.148C3327.61 288.996 3326.84 289.652 3325.86 290.116C3324.9 290.564 3323.83 290.788 3322.65 290.788C3320.29 290.788 3318.45 290.068 3317.13 288.628C3315.8 287.188 3315.13 285.132 3315.13 282.46C3315.13 280.556 3315.49 278.924 3316.21 277.564C3316.93 276.204 3317.93 275.172 3319.21 274.468C3320.51 273.764 3322.01 273.412 3323.7 273.412C3324.6 273.412 3325.45 273.516 3326.27 273.724C3327.1 273.916 3327.81 274.196 3328.38 274.564L3326.94 277.42C3326.11 276.86 3325.06 276.58 3323.8 276.58C3322.37 276.58 3321.25 276.996 3320.41 277.828C3319.58 278.66 3319.13 279.868 3319.07 281.452C3320.06 280.46 3321.45 279.964 3323.22 279.964ZM3322.43 287.884C3323.26 287.884 3323.93 287.66 3324.45 287.212C3324.97 286.764 3325.24 286.156 3325.24 285.388C3325.24 284.62 3324.97 284.012 3324.45 283.564C3323.93 283.1 3323.25 282.868 3322.38 282.868C3321.53 282.868 3320.84 283.108 3320.29 283.588C3319.75 284.052 3319.48 284.652 3319.48 285.388C3319.48 286.124 3319.74 286.724 3320.27 287.188C3320.8 287.652 3321.52 287.884 3322.43 287.884Z" fill="#2DA7FF"/>
<rect x="1192.72" y="245.724" width="324.553" height="324.553" rx="54" fill="white"/>
<rect x="1144" y="197" width="422" height="422" rx="89" stroke="white" stroke-width="24"/>
<path d="M1332.5 443.018C1324.53 443.018 1316.81 441.962 1309.32 439.85C1301.93 437.642 1295.97 434.81 1291.46 431.354L1299.38 413.786C1303.7 416.954 1308.84 419.498 1314.79 421.418C1320.74 423.338 1326.69 424.298 1332.65 424.298C1339.27 424.298 1344.17 423.338 1347.33 421.418C1350.5 419.402 1352.09 416.762 1352.09 413.498C1352.09 411.098 1351.13 409.13 1349.21 407.594C1347.38 405.962 1344.98 404.666 1342.01 403.706C1339.13 402.746 1335.19 401.69 1330.2 400.538C1322.52 398.714 1316.23 396.89 1311.33 395.066C1306.44 393.242 1302.21 390.314 1298.66 386.282C1295.21 382.25 1293.48 376.874 1293.48 370.154C1293.48 364.298 1295.06 359.018 1298.23 354.314C1301.4 349.514 1306.15 345.722 1312.49 342.938C1318.92 340.154 1326.74 338.762 1335.96 338.762C1342.39 338.762 1348.68 339.53 1354.82 341.066C1360.97 342.602 1366.34 344.81 1370.95 347.69L1363.75 365.402C1354.44 360.122 1345.13 357.482 1335.81 357.482C1329.29 357.482 1324.44 358.538 1321.27 360.65C1318.2 362.762 1316.66 365.546 1316.66 369.002C1316.66 372.458 1318.44 375.05 1321.99 376.778C1325.64 378.41 1331.16 380.042 1338.55 381.674C1346.23 383.498 1352.52 385.322 1357.41 387.146C1362.31 388.97 1366.49 391.85 1369.94 395.786C1373.49 399.722 1375.27 405.05 1375.27 411.77C1375.27 417.53 1373.64 422.81 1370.37 427.61C1367.21 432.314 1362.41 436.058 1355.97 438.842C1349.54 441.626 1341.72 443.018 1332.5 443.018ZM1389.63 363.818H1412.09V441.29H1389.63V363.818ZM1400.86 353.018C1396.73 353.018 1393.37 351.818 1390.78 349.418C1388.19 347.018 1386.89 344.042 1386.89 340.49C1386.89 336.938 1388.19 333.962 1390.78 331.562C1393.37 329.162 1396.73 327.962 1400.86 327.962C1404.99 327.962 1408.35 329.114 1410.94 331.418C1413.53 333.722 1414.83 336.602 1414.83 340.058C1414.83 343.802 1413.53 346.922 1410.94 349.418C1408.35 351.818 1404.99 353.018 1400.86 353.018Z" fill="#2DA7FF"/>
<path d="M1252.87 510.73C1251.89 510.73 1250.94 510.572 1250.02 510.255C1249.13 509.939 1248.43 509.521 1247.93 509.001L1248.49 507.918C1248.97 508.4 1249.61 508.792 1250.4 509.096C1251.2 509.388 1252.03 509.533 1252.87 509.533C1254.07 509.533 1254.96 509.318 1255.55 508.887C1256.15 508.444 1256.45 507.874 1256.45 507.177C1256.45 506.645 1256.28 506.221 1255.95 505.904C1255.64 505.588 1255.24 505.347 1254.77 505.182C1254.31 505.005 1253.65 504.815 1252.82 504.612C1251.82 504.359 1251.02 504.118 1250.42 503.89C1249.83 503.65 1249.32 503.289 1248.88 502.807C1248.47 502.326 1248.26 501.674 1248.26 500.85C1248.26 500.179 1248.43 499.571 1248.79 499.026C1249.14 498.469 1249.69 498.026 1250.42 497.696C1251.16 497.367 1252.07 497.202 1253.16 497.202C1253.92 497.202 1254.66 497.31 1255.38 497.525C1256.12 497.728 1256.75 498.013 1257.28 498.38L1256.81 499.501C1256.25 499.134 1255.65 498.862 1255.02 498.684C1254.39 498.494 1253.77 498.399 1253.16 498.399C1251.99 498.399 1251.11 498.627 1250.52 499.083C1249.94 499.527 1249.64 500.103 1249.64 500.812C1249.64 501.344 1249.8 501.775 1250.12 502.104C1250.45 502.421 1250.85 502.668 1251.34 502.845C1251.83 503.01 1252.49 503.194 1253.31 503.396C1254.29 503.637 1255.07 503.878 1255.67 504.118C1256.28 504.346 1256.79 504.701 1257.21 505.182C1257.62 505.651 1257.83 506.291 1257.83 507.101C1257.83 507.773 1257.65 508.387 1257.28 508.944C1256.93 509.489 1256.38 509.926 1255.63 510.255C1254.88 510.572 1253.96 510.73 1252.87 510.73ZM1283.7 497.316H1285.1V510.616H1283.7V497.316ZM1312.23 497.316H1313.64V509.4H1321.08V510.616H1312.23V497.316ZM1346.22 497.316H1347.62V510.616H1346.22V497.316ZM1380.53 510.73C1379.21 510.73 1378.02 510.439 1376.96 509.856C1375.9 509.274 1375.08 508.469 1374.47 507.443C1373.87 506.405 1373.57 505.246 1373.57 503.966C1373.57 502.687 1373.87 501.534 1374.47 500.508C1375.08 499.47 1375.91 498.659 1376.98 498.076C1378.04 497.494 1379.23 497.202 1380.55 497.202C1381.54 497.202 1382.45 497.367 1383.28 497.696C1384.12 498.026 1384.83 498.507 1385.41 499.14L1384.52 500.033C1383.48 498.982 1382.17 498.456 1380.59 498.456C1379.53 498.456 1378.58 498.697 1377.72 499.178C1376.85 499.66 1376.18 500.318 1375.68 501.154C1375.2 501.99 1374.96 502.928 1374.96 503.966C1374.96 505.005 1375.2 505.942 1375.68 506.778C1376.18 507.614 1376.85 508.273 1377.72 508.754C1378.58 509.236 1379.53 509.476 1380.59 509.476C1382.18 509.476 1383.49 508.944 1384.52 507.88L1385.41 508.773C1384.83 509.407 1384.11 509.894 1383.26 510.236C1382.43 510.566 1381.52 510.73 1380.53 510.73ZM1416.74 510.73C1415.43 510.73 1414.23 510.439 1413.15 509.856C1412.09 509.261 1411.25 508.45 1410.65 507.424C1410.05 506.398 1409.75 505.246 1409.75 503.966C1409.75 502.687 1410.05 501.534 1410.65 500.508C1411.25 499.482 1412.09 498.678 1413.15 498.095C1414.23 497.5 1415.43 497.202 1416.74 497.202C1418.06 497.202 1419.25 497.494 1420.3 498.076C1421.36 498.659 1422.2 499.47 1422.81 500.508C1423.41 501.534 1423.72 502.687 1423.72 503.966C1423.72 505.246 1423.41 506.405 1422.81 507.443C1422.2 508.469 1421.36 509.274 1420.3 509.856C1419.25 510.439 1418.06 510.73 1416.74 510.73ZM1416.74 509.476C1417.8 509.476 1418.75 509.242 1419.59 508.773C1420.44 508.292 1421.11 507.633 1421.59 506.797C1422.07 505.949 1422.31 505.005 1422.31 503.966C1422.31 502.928 1422.07 501.99 1421.59 501.154C1421.11 500.306 1420.44 499.647 1419.59 499.178C1418.75 498.697 1417.8 498.456 1416.74 498.456C1415.69 498.456 1414.74 498.697 1413.88 499.178C1413.03 499.647 1412.36 500.306 1411.86 501.154C1411.38 501.99 1411.14 502.928 1411.14 503.966C1411.14 505.005 1411.38 505.949 1411.86 506.797C1412.36 507.633 1413.03 508.292 1413.88 508.773C1414.74 509.242 1415.69 509.476 1416.74 509.476ZM1460.78 497.316V510.616H1459.62L1451.07 499.824V510.616H1449.67V497.316H1450.83L1459.4 508.108V497.316H1460.78Z" fill="#2DA7FF"/>
<path d="M1241.35 273.7V290.5H1237.46V276.82H1234.1V273.7H1241.35ZM1259.65 286.972H1256.91V290.5H1253.12V286.972H1244.07V284.356L1251.99 273.7H1256.07L1248.73 283.804H1253.24V280.66H1256.91V283.804H1259.65V286.972Z" fill="#2DA7FF"/>
<rect x="626.724" y="245.724" width="324.553" height="324.553" rx="54" fill="white"/>
<rect x="578" y="197" width="422" height="422" rx="89" stroke="white" stroke-width="24"/>
<path d="M789.83 340.49V441.29H770.678L720.422 380.09V441.29H697.382V340.49H716.678L766.79 401.69V340.49H789.83ZM887.982 402.842C887.982 403.13 887.838 405.146 887.55 408.89H828.942C829.998 413.69 832.494 417.482 836.43 420.266C840.366 423.05 845.262 424.442 851.118 424.442C855.15 424.442 858.702 423.866 861.774 422.714C864.942 421.466 867.87 419.546 870.558 416.954L882.51 429.914C875.214 438.266 864.558 442.442 850.542 442.442C841.806 442.442 834.078 440.762 827.358 437.402C820.638 433.946 815.454 429.194 811.806 423.146C808.158 417.098 806.334 410.234 806.334 402.554C806.334 394.97 808.11 388.154 811.662 382.106C815.31 375.962 820.254 371.21 826.494 367.85C832.83 364.394 839.886 362.666 847.662 362.666C855.246 362.666 862.11 364.298 868.254 367.562C874.398 370.826 879.198 375.53 882.654 381.674C886.206 387.722 887.982 394.778 887.982 402.842ZM847.806 379.658C842.718 379.658 838.446 381.098 834.99 383.978C831.534 386.858 829.422 390.794 828.654 395.786H866.814C866.046 390.89 863.934 387.002 860.478 384.122C857.022 381.146 852.798 379.658 847.806 379.658Z" fill="#2DA7FF"/>
<path d="M738.338 497.316V510.616H737.179L728.629 499.824V510.616H727.223V497.316H728.382L736.951 508.108V497.316H738.338ZM774.884 509.4V510.616H765.479V497.316H774.599V498.532H766.885V503.263H773.763V504.46H766.885V509.4H774.884ZM806.729 510.73C805.411 510.73 804.214 510.439 803.138 509.856C802.074 509.261 801.238 508.45 800.63 507.424C800.034 506.398 799.737 505.246 799.737 503.966C799.737 502.687 800.034 501.534 800.63 500.508C801.238 499.482 802.074 498.678 803.138 498.095C804.214 497.5 805.411 497.202 806.729 497.202C808.046 497.202 809.23 497.494 810.282 498.076C811.346 498.659 812.182 499.47 812.79 500.508C813.398 501.534 813.702 502.687 813.702 503.966C813.702 505.246 813.398 506.405 812.79 507.443C812.182 508.469 811.346 509.274 810.282 509.856C809.23 510.439 808.046 510.73 806.729 510.73ZM806.729 509.476C807.78 509.476 808.73 509.242 809.579 508.773C810.427 508.292 811.092 507.633 811.574 506.797C812.055 505.949 812.296 505.005 812.296 503.966C812.296 502.928 812.055 501.99 811.574 501.154C811.092 500.306 810.427 499.647 809.579 499.178C808.73 498.697 807.78 498.456 806.729 498.456C805.677 498.456 804.721 498.697 803.86 499.178C803.011 499.647 802.34 500.306 801.846 501.154C801.364 501.99 801.124 502.928 801.124 503.966C801.124 505.005 801.364 505.949 801.846 506.797C802.34 507.633 803.011 508.292 803.86 508.773C804.721 509.242 805.677 509.476 806.729 509.476ZM850.768 497.316V510.616H849.609L841.059 499.824V510.616H839.653V497.316H840.812L849.381 508.108V497.316H850.768Z" fill="#2DA7FF"/>
<path d="M675.477 273.7V290.5H671.589V276.82H668.229V273.7H675.477ZM685.596 290.788C684.204 290.788 682.964 290.444 681.876 289.756C680.788 289.068 679.932 288.076 679.308 286.78C678.7 285.468 678.396 283.908 678.396 282.1C678.396 280.292 678.7 278.74 679.308 277.444C679.932 276.132 680.788 275.132 681.876 274.444C682.964 273.756 684.204 273.412 685.596 273.412C686.988 273.412 688.228 273.756 689.316 274.444C690.404 275.132 691.252 276.132 691.86 277.444C692.484 278.74 692.796 280.292 692.796 282.1C692.796 283.908 692.484 285.468 691.86 286.78C691.252 288.076 690.404 289.068 689.316 289.756C688.228 290.444 686.988 290.788 685.596 290.788ZM685.596 287.5C686.62 287.5 687.42 287.06 687.996 286.18C688.588 285.3 688.884 283.94 688.884 282.1C688.884 280.26 688.588 278.9 687.996 278.02C687.42 277.14 686.62 276.7 685.596 276.7C684.588 276.7 683.788 277.14 683.196 278.02C682.62 278.9 682.332 280.26 682.332 282.1C682.332 283.94 682.62 285.3 683.196 286.18C683.788 287.06 684.588 287.5 685.596 287.5Z" fill="#2DA7FF"/>
<rect x="60.7236" y="245.724" width="324.553" height="324.553" rx="54" fill="white"/>
<rect x="12" y="197" width="422" height="422" rx="89" stroke="white" stroke-width="24"/>
<path d="M224.169 340.2V441H200.841V399.672H155.049V441H131.721V340.2H155.049V379.944H200.841V340.2H224.169ZM322.322 402.552C322.322 402.84 322.178 404.856 321.89 408.6H263.282C264.338 413.4 266.834 417.192 270.77 419.976C274.706 422.76 279.602 424.152 285.458 424.152C289.49 424.152 293.042 423.576 296.114 422.424C299.282 421.176 302.21 419.256 304.898 416.664L316.85 429.624C309.554 437.976 298.898 442.152 284.882 442.152C276.146 442.152 268.418 440.472 261.698 437.112C254.978 433.656 249.794 428.904 246.146 422.856C242.498 416.808 240.674 409.944 240.674 402.264C240.674 394.68 242.45 387.864 246.002 381.816C249.65 375.672 254.594 370.92 260.834 367.56C267.17 364.104 274.226 362.376 282.002 362.376C289.586 362.376 296.45 364.008 302.594 367.272C308.738 370.536 313.538 375.24 316.994 381.384C320.546 387.432 322.322 394.488 322.322 402.552ZM282.146 379.368C277.058 379.368 272.786 380.808 269.33 383.688C265.874 386.568 263.762 390.504 262.994 395.496H301.154C300.386 390.6 298.274 386.712 294.818 383.832C291.362 380.856 287.138 379.368 282.146 379.368Z" fill="#2DA7FF"/>
<path d="M140.14 497.316V510.616H138.753V504.479H130.431V510.616H129.025V497.316H130.431V503.244H138.753V497.316H140.14ZM176.686 509.4V510.616H167.281V497.316H176.401V498.532H168.687V503.263H175.565V504.46H168.687V509.4H176.686ZM202.791 497.316H204.197V509.4H211.645V510.616H202.791V497.316ZM236.779 497.316H238.185V510.616H236.779V497.316ZM270.671 510.73C268.948 510.73 267.606 510.236 266.643 509.248C265.68 508.26 265.199 506.823 265.199 504.935V497.316H266.605V504.878C266.605 506.424 266.953 507.576 267.65 508.336C268.347 509.096 269.354 509.476 270.671 509.476C272.001 509.476 273.014 509.096 273.711 508.336C274.408 507.576 274.756 506.424 274.756 504.878V497.316H276.124V504.935C276.124 506.823 275.643 508.26 274.68 509.248C273.73 510.236 272.394 510.73 270.671 510.73ZM316.974 497.316V510.616H315.625V499.976L310.4 508.925H309.735L304.51 500.033V510.616H303.161V497.316H304.32L310.096 507.177L315.815 497.316H316.974Z" fill="#2DA7FF"/>
<path d="M121.315 287.332V290.5H108.619V287.98L115.099 281.86C115.787 281.204 116.251 280.644 116.491 280.18C116.731 279.7 116.851 279.228 116.851 278.764C116.851 278.092 116.619 277.58 116.155 277.228C115.707 276.86 115.043 276.676 114.163 276.676C113.427 276.676 112.763 276.82 112.171 277.108C111.579 277.38 111.083 277.796 110.683 278.356L107.851 276.532C108.507 275.556 109.411 274.796 110.563 274.252C111.715 273.692 113.035 273.412 114.523 273.412C115.771 273.412 116.859 273.62 117.787 274.036C118.731 274.436 119.459 275.012 119.971 275.764C120.499 276.5 120.763 277.372 120.763 278.38C120.763 279.292 120.571 280.148 120.187 280.948C119.803 281.748 119.059 282.66 117.955 283.684L114.091 287.332H121.315Z" fill="#2DA7FF"/>
</g>
<defs>
<filter id="filter0_d" x="1639" y="-59" width="933.012" height="933.012" filterUnits="userSpaceOnUse" color-interpolation-filters="sRGB">
<feFlood flood-opacity="0" result="BackgroundImageFix"/>
<feColorMatrix in="SourceAlpha" type="matrix" values="0 0 0 0 0 0 0 0 0 0 0 0 0 0 0 0 0 0 127 0"/>
<feOffset/>
<feGaussianBlur stdDeviation="29.5"/>
<feColorMatrix type="matrix" values="0 0 0 0 0 0 0 0 0 0 0 0 0 0 0 0 0 0 0.47 0"/>
<feBlend mode="normal" in2="BackgroundImageFix" result="effect1_dropShadow"/>
<feBlend mode="normal" in="SourceGraphic" in2="effect1_dropShadow" result="shape"/>
</filter>
<clipPath id="clip0">
<rect width="4212" height="816" fill="white"/>
</clipPath>
</defs>
</svg>
