<svg width="1440" height="855" viewBox="0 0 1440 855" fill="none" xmlns="http://www.w3.org/2000/svg">
<g clip-path="url(#clip0)">
<g filter="url(#filter0_d)">
<rect x="540.152" y="101.385" width="556.319" height="556.319" rx="54" transform="rotate(14.5507 540.152 101.385)" fill="white"/>
<rect x="508.552" y="47.6299" width="644.502" height="644.502" rx="89" transform="rotate(14.5507 508.552 47.6299)" stroke="white" stroke-width="24"/>
<path d="M704.826 490.038L730.755 389.156L659.747 459.377L642.224 454.829L614.012 361.161L588.404 459.819L551.917 450.349L595.532 282.317L627.698 290.666L663.486 411.41L752.521 323.065L784.447 331.352L741.313 499.509L704.826 490.038ZM839.492 527.042C825.889 523.511 814.374 517.533 804.946 509.107C795.719 500.563 789.374 490.461 785.909 478.801C782.445 467.14 782.374 454.909 785.697 442.106C789.02 429.304 795.031 418.651 803.729 410.147C812.427 401.644 822.864 395.983 835.04 393.165C847.417 390.229 860.407 390.526 874.01 394.056C887.612 397.587 899.027 403.625 908.254 412.169C917.522 420.553 923.888 430.575 927.352 442.235C930.817 453.896 930.887 466.127 927.564 478.93C924.241 491.732 918.231 502.385 909.533 510.888C900.835 519.392 890.377 525.133 878.16 528.111C865.984 530.929 853.095 530.572 839.492 527.042ZM847.467 496.316C857.069 498.808 865.741 497.643 873.484 492.82C881.428 487.879 886.813 479.967 889.637 469.085C892.462 458.203 891.584 448.751 887.005 440.73C882.626 432.591 875.636 427.275 866.035 424.782C856.433 422.29 847.66 423.515 839.716 428.456C831.813 433.237 826.449 441.069 823.625 451.951C820.8 462.833 821.657 472.365 826.195 480.546C830.775 488.567 837.865 493.824 847.467 496.316Z" fill="#00126F"/>
<path d="M505.862 558.344L508.914 546.49L500.474 554.838L499.406 554.56L496.073 543.232L493.016 555.009L490.786 554.431L495.007 538.169L496.912 538.664L500.728 551.854L510.385 542.161L512.29 542.655L508.092 558.923L505.862 558.344ZM546.399 569.064C544.758 568.638 543.371 567.898 542.24 566.844C541.112 565.774 540.334 564.506 539.905 563.039C539.491 561.576 539.487 560.063 539.893 558.498C540.299 556.934 541.038 555.614 542.111 554.537C543.2 553.464 544.495 552.742 545.996 552.371C547.501 551.985 549.075 552.005 550.716 552.431C552.343 552.853 553.719 553.599 554.847 554.669C555.978 555.723 556.751 556.981 557.165 558.444C557.582 559.891 557.586 561.405 557.176 562.985C556.766 564.564 556.025 565.893 554.952 566.969C553.883 568.031 552.596 568.755 551.09 569.141C549.589 569.512 548.025 569.486 546.399 569.064ZM546.936 566.996C548.128 567.306 549.267 567.312 550.353 567.016C551.453 566.723 552.398 566.174 553.185 565.37C553.992 564.555 554.548 563.559 554.853 562.382C555.159 561.205 555.155 560.071 554.843 558.982C554.55 557.881 553.994 556.935 553.174 556.144C552.37 555.357 551.372 554.808 550.18 554.499C548.987 554.189 547.833 554.179 546.716 554.468C545.616 554.76 544.662 555.314 543.855 556.13C543.068 556.934 542.521 557.924 542.216 559.101C541.91 560.278 541.904 561.417 542.197 562.518C542.509 563.608 543.075 564.548 543.895 565.339C544.73 566.135 545.743 566.687 546.936 566.996ZM588.971 562.559L591.294 563.162L587.598 577.402L596.402 579.687L595.878 581.708L584.75 578.82L588.971 562.559ZM630.661 584.736L629.202 590.358L626.902 589.761L628.373 584.093L624.665 571.824L627.15 572.469L630.129 582.391L637.581 575.176L639.88 575.773L630.661 584.736ZM677.009 593.766C677.885 594.275 678.504 594.948 678.865 595.785C679.23 596.607 679.276 597.545 679.003 598.598C678.637 600.007 677.821 600.953 676.556 601.434C675.305 601.92 673.666 601.899 671.637 601.373L663.878 599.359L668.099 583.097L675.393 584.991C677.252 585.473 678.588 586.217 679.402 587.221C680.231 588.23 680.474 589.393 680.133 590.709C679.912 591.561 679.519 592.244 678.956 592.759C678.408 593.278 677.759 593.614 677.009 593.766ZM669.934 585.582L668.583 590.786L673.345 592.022C674.538 592.331 675.508 592.352 676.255 592.083C677.022 591.803 677.516 591.236 677.737 590.385C677.959 589.533 677.8 588.806 677.262 588.203C676.744 587.589 675.888 587.128 674.696 586.818L669.934 585.582ZM672.033 599.467C673.349 599.808 674.397 599.849 675.175 599.588C675.954 599.327 676.463 598.732 676.705 597.803C677.175 595.991 676.086 594.742 673.438 594.054L668.095 592.667L666.69 598.08L672.033 599.467ZM711.815 594.444L718.667 596.223C720.387 596.669 721.824 597.406 722.979 598.433C724.134 599.46 724.914 600.688 725.32 602.116C725.746 603.532 725.752 605.038 725.338 606.633C724.924 608.228 724.185 609.549 723.12 610.595C722.074 611.629 720.797 612.314 719.288 612.65C717.78 612.986 716.166 612.93 714.447 612.484L707.594 610.705L711.815 594.444ZM714.832 610.427C716.148 610.769 717.368 610.813 718.492 610.559C719.632 610.309 720.591 609.798 721.37 609.025C722.153 608.236 722.702 607.238 723.015 606.03C723.329 604.822 723.333 603.691 723.028 602.636C722.727 601.566 722.14 600.645 721.266 599.873C720.407 599.105 719.32 598.55 718.004 598.208L713.613 597.068L710.441 609.287L714.832 610.427ZM765.245 623.512L764.721 625.533L752.92 622.47L757.141 606.209L768.616 609.188L768.092 611.209L758.939 608.833L757.643 613.828L765.797 615.944L765.284 617.919L757.13 615.802L755.768 621.052L765.245 623.512ZM812.822 620.662L808.601 636.923L806.696 636.429L800.087 621.77L796.939 633.896L794.616 633.293L798.837 617.032L800.742 617.526L807.351 632.185L810.499 620.059L812.822 620.662ZM846.291 646.904C844.123 646.341 842.595 645.284 841.709 643.731C840.823 642.179 840.681 640.241 841.284 637.918L843.684 628.672L846.007 629.275L843.631 638.428C842.727 641.913 843.8 644.051 846.851 644.843C848.337 645.229 849.586 645.098 850.597 644.451C851.612 643.789 852.349 642.575 852.807 640.81L855.183 631.657L857.436 632.242L855.036 641.488C854.429 643.826 853.361 645.458 851.831 646.383C850.306 647.293 848.459 647.467 846.291 646.904ZM899.188 660.436L902.24 648.582L893.8 656.93L892.732 656.652L889.399 645.324L886.342 657.102L884.112 656.523L888.332 640.262L890.237 640.756L894.054 653.946L903.711 644.253L905.616 644.748L901.418 661.015L899.188 660.436Z" fill="#00126F"/>
<path d="M613.845 195.031L608.549 193.656L606.776 200.485L599.435 198.58L601.208 191.75L583.692 187.204L585.007 182.14L605.693 165.491L613.592 167.541L594.298 183.411L603.032 185.678L604.612 179.592L611.72 181.437L610.141 187.523L615.437 188.898L613.845 195.031ZM640.124 202.595L638.532 208.728L613.954 202.349L615.22 197.47L630.84 188.879C632.501 187.955 633.681 187.104 634.379 186.326C635.085 185.517 635.554 184.664 635.787 183.766C636.125 182.465 635.933 181.357 635.212 180.443C634.529 179.505 633.336 178.815 631.633 178.373C630.208 178.003 628.85 177.948 627.559 178.208C626.277 178.438 625.108 178.994 624.052 179.877L619.486 174.923C621.246 173.363 623.378 172.346 625.882 171.872C628.393 171.366 631.089 171.488 633.97 172.235C636.386 172.862 638.387 173.812 639.975 175.083C641.601 176.332 642.721 177.813 643.334 179.526C643.987 181.216 644.06 183.037 643.553 184.988C643.095 186.754 642.293 188.314 641.148 189.67C640.002 191.026 638.104 192.417 635.452 193.845L626.139 198.965L640.124 202.595Z" fill="#00126F"/>
</g>
<rect x="1207.72" y="278.724" width="324.553" height="324.553" rx="54" fill="white"/>
<rect x="1159" y="230" width="422" height="422" rx="89" stroke="white" stroke-width="24"/>
<path d="M1344.48 452.69H1297.68L1288.76 474.29H1264.85L1309.78 373.49H1332.82L1377.89 474.29H1353.41L1344.48 452.69ZM1337.14 434.978L1321.16 396.386L1305.17 434.978H1337.14ZM1463.41 396.818V474.29H1442.1V465.074C1439.12 468.434 1435.57 471.026 1431.44 472.85C1427.31 474.578 1422.85 475.442 1418.05 475.442C1407.87 475.442 1399.81 472.514 1393.86 466.658C1387.9 460.802 1384.93 452.114 1384.93 440.594V396.818H1407.39V437.282C1407.39 449.762 1412.62 456.002 1423.09 456.002C1428.46 456.002 1432.78 454.274 1436.05 450.818C1439.31 447.266 1440.94 442.034 1440.94 435.122V396.818H1463.41Z" fill="#2DA7FF"/>
<path d="M1318.57 536.966H1319.92V542.039C1319.3 542.584 1318.57 543.002 1317.72 543.293C1316.87 543.585 1315.98 543.73 1315.04 543.73C1313.71 543.73 1312.51 543.439 1311.45 542.856C1310.38 542.274 1309.55 541.469 1308.94 540.443C1308.33 539.405 1308.03 538.246 1308.03 536.966C1308.03 535.687 1308.33 534.534 1308.94 533.508C1309.55 532.47 1310.38 531.659 1311.45 531.076C1312.51 530.494 1313.72 530.202 1315.06 530.202C1316.07 530.202 1317 530.367 1317.85 530.696C1318.7 531.013 1319.42 531.488 1320 532.121L1319.12 533.014C1318.07 531.976 1316.74 531.456 1315.12 531.456C1314.04 531.456 1313.06 531.697 1312.19 532.178C1311.33 532.647 1310.65 533.306 1310.16 534.154C1309.66 534.99 1309.42 535.928 1309.42 536.966C1309.42 538.005 1309.66 538.942 1310.16 539.778C1310.65 540.614 1311.33 541.273 1312.19 541.754C1313.05 542.236 1314.02 542.476 1315.1 542.476C1316.46 542.476 1317.62 542.134 1318.57 541.45V536.966ZM1352.52 543.73C1351.2 543.73 1350 543.439 1348.92 542.856C1347.86 542.261 1347.02 541.45 1346.42 540.424C1345.82 539.398 1345.52 538.246 1345.52 536.966C1345.52 535.687 1345.82 534.534 1346.42 533.508C1347.02 532.482 1347.86 531.678 1348.92 531.095C1350 530.5 1351.2 530.202 1352.52 530.202C1353.83 530.202 1355.02 530.494 1356.07 531.076C1357.13 531.659 1357.97 532.47 1358.58 533.508C1359.18 534.534 1359.49 535.687 1359.49 536.966C1359.49 538.246 1359.18 539.405 1358.58 540.443C1357.97 541.469 1357.13 542.274 1356.07 542.856C1355.02 543.439 1353.83 543.73 1352.52 543.73ZM1352.52 542.476C1353.57 542.476 1354.52 542.242 1355.37 541.773C1356.21 541.292 1356.88 540.633 1357.36 539.797C1357.84 538.949 1358.08 538.005 1358.08 536.966C1358.08 535.928 1357.84 534.99 1357.36 534.154C1356.88 533.306 1356.21 532.647 1355.37 532.178C1354.52 531.697 1353.57 531.456 1352.52 531.456C1351.46 531.456 1350.51 531.697 1349.65 532.178C1348.8 532.647 1348.13 533.306 1347.63 534.154C1347.15 534.99 1346.91 535.928 1346.91 536.966C1346.91 538.005 1347.15 538.949 1347.63 539.797C1348.13 540.633 1348.8 541.292 1349.65 541.773C1350.51 542.242 1351.46 542.476 1352.52 542.476ZM1385.44 530.316H1386.85V542.4H1394.29V543.616H1385.44V530.316ZM1419.43 530.316H1424.84C1426.25 530.316 1427.49 530.601 1428.57 531.171C1429.64 531.729 1430.48 532.514 1431.08 533.527C1431.67 534.528 1431.97 535.674 1431.97 536.966C1431.97 538.258 1431.67 539.411 1431.08 540.424C1430.48 541.425 1429.64 542.21 1428.57 542.78C1427.49 543.338 1426.25 543.616 1424.84 543.616H1419.43V530.316ZM1424.77 542.4C1425.93 542.4 1426.95 542.172 1427.83 541.716C1428.7 541.248 1429.38 540.608 1429.86 539.797C1430.34 538.974 1430.58 538.03 1430.58 536.966C1430.58 535.902 1430.34 534.965 1429.86 534.154C1429.38 533.331 1428.7 532.691 1427.83 532.235C1426.95 531.767 1425.93 531.532 1424.77 531.532H1420.83V542.4H1424.77Z" fill="#2DA7FF"/>
<path d="M1260.91 306.699V309.219L1254.67 323.499H1250.45L1256.47 309.867H1250.9V312.603H1247.45V306.699H1260.91ZM1268.55 306.411C1270.9 306.411 1272.74 307.131 1274.07 308.571C1275.39 309.995 1276.06 312.051 1276.06 314.739C1276.06 316.643 1275.7 318.275 1274.98 319.635C1274.27 320.995 1273.27 322.027 1271.98 322.731C1270.68 323.435 1269.19 323.787 1267.49 323.787C1266.59 323.787 1265.74 323.691 1264.92 323.499C1264.11 323.291 1263.41 323.003 1262.83 322.635L1264.27 319.779C1265.09 320.339 1266.14 320.619 1267.42 320.619C1268.84 320.619 1269.97 320.203 1270.8 319.371C1271.63 318.523 1272.08 317.307 1272.15 315.723C1271.14 316.731 1269.75 317.235 1267.97 317.235C1266.9 317.235 1265.92 317.019 1265.04 316.587C1264.16 316.155 1263.47 315.547 1262.95 314.763C1262.44 313.963 1262.19 313.043 1262.19 312.003C1262.19 310.883 1262.47 309.899 1263.03 309.051C1263.59 308.203 1264.35 307.555 1265.31 307.107C1266.28 306.643 1267.36 306.411 1268.55 306.411ZM1268.83 314.331C1269.68 314.331 1270.37 314.099 1270.9 313.635C1271.44 313.155 1271.71 312.547 1271.71 311.811C1271.71 311.075 1271.45 310.475 1270.92 310.011C1270.41 309.547 1269.7 309.315 1268.79 309.315C1267.95 309.315 1267.27 309.539 1266.75 309.987C1266.23 310.435 1265.98 311.043 1265.98 311.811C1265.98 312.579 1266.23 313.195 1266.75 313.659C1267.27 314.107 1267.97 314.331 1268.83 314.331Z" fill="#2DA7FF"/>
<rect x="-53.2765" y="278.724" width="324.553" height="324.553" rx="54" fill="white"/>
<rect x="-102" y="230" width="422" height="422" rx="89" stroke="white" stroke-width="24"/>
<path d="M86.5017 476.018C78.5337 476.018 70.8057 474.962 63.3177 472.85C55.9257 470.642 49.9737 467.81 45.4617 464.354L53.3817 446.786C57.7017 449.954 62.8377 452.498 68.7897 454.418C74.7417 456.338 80.6937 457.298 86.6457 457.298C93.2697 457.298 98.1657 456.338 101.334 454.418C104.502 452.402 106.086 449.762 106.086 446.498C106.086 444.098 105.126 442.13 103.206 440.594C101.382 438.962 98.9817 437.666 96.0057 436.706C93.1257 435.746 89.1897 434.69 84.1977 433.538C76.5177 431.714 70.2297 429.89 65.3337 428.066C60.4377 426.242 56.2137 423.314 52.6617 419.282C49.2057 415.25 47.4777 409.874 47.4777 403.154C47.4777 397.298 49.0617 392.018 52.2297 387.314C55.3977 382.514 60.1497 378.722 66.4857 375.938C72.9177 373.154 80.7417 371.762 89.9577 371.762C96.3897 371.762 102.678 372.53 108.822 374.066C114.966 375.602 120.342 377.81 124.95 380.69L117.75 398.402C108.438 393.122 99.1257 390.482 89.8137 390.482C83.2857 390.482 78.4377 391.538 75.2697 393.65C72.1977 395.762 70.6617 398.546 70.6617 402.002C70.6617 405.458 72.4377 408.05 75.9897 409.778C79.6377 411.41 85.1577 413.042 92.5497 414.674C100.23 416.498 106.518 418.322 111.414 420.146C116.31 421.97 120.486 424.85 123.942 428.786C127.494 432.722 129.27 438.05 129.27 444.77C129.27 450.53 127.638 455.81 124.374 460.61C121.206 465.314 116.406 469.058 109.974 471.842C103.542 474.626 95.7177 476.018 86.5017 476.018ZM143.626 396.818H166.09V474.29H143.626V396.818ZM154.858 386.018C150.73 386.018 147.37 384.818 144.778 382.418C142.186 380.018 140.89 377.042 140.89 373.49C140.89 369.938 142.186 366.962 144.778 364.562C147.37 362.162 150.73 360.962 154.858 360.962C158.986 360.962 162.346 362.114 164.938 364.418C167.53 366.722 168.826 369.602 168.826 373.058C168.826 376.802 167.53 379.922 164.938 382.418C162.346 384.818 158.986 386.018 154.858 386.018Z" fill="#2DA7FF"/>
<path d="M6.87438 543.73C5.88638 543.73 4.93638 543.572 4.02438 543.255C3.12505 542.939 2.42838 542.521 1.93438 542.001L2.48538 540.918C2.96672 541.4 3.60638 541.792 4.40438 542.096C5.20238 542.388 6.02572 542.533 6.87438 542.533C8.06505 542.533 8.95805 542.318 9.55338 541.887C10.1487 541.444 10.4464 540.874 10.4464 540.177C10.4464 539.645 10.2817 539.221 9.95238 538.904C9.63572 538.588 9.24305 538.347 8.77438 538.182C8.30572 538.005 7.65338 537.815 6.81738 537.612C5.81672 537.359 5.01872 537.118 4.42338 536.89C3.82805 536.65 3.31505 536.289 2.88438 535.807C2.46638 535.326 2.25738 534.674 2.25738 533.85C2.25738 533.179 2.43472 532.571 2.78938 532.026C3.14405 531.469 3.68872 531.026 4.42338 530.696C5.15805 530.367 6.07005 530.202 7.15938 530.202C7.91938 530.202 8.66038 530.31 9.38238 530.525C10.117 530.728 10.7504 531.013 11.2824 531.38L10.8074 532.501C10.25 532.134 9.65472 531.862 9.02138 531.684C8.38805 531.494 7.76738 531.399 7.15938 531.399C5.99405 531.399 5.11372 531.627 4.51838 532.083C3.93572 532.527 3.64438 533.103 3.64438 533.812C3.64438 534.344 3.80272 534.775 4.11938 535.104C4.44872 535.421 4.85405 535.668 5.33538 535.845C5.82938 536.01 6.48805 536.194 7.31138 536.396C8.28672 536.637 9.07205 536.878 9.66738 537.118C10.2754 537.346 10.7884 537.701 11.2064 538.182C11.6244 538.651 11.8334 539.291 11.8334 540.101C11.8334 540.773 11.6497 541.387 11.2824 541.944C10.9277 542.489 10.3767 542.926 9.62938 543.255C8.88205 543.572 7.96372 543.73 6.87438 543.73ZM37.6968 530.316H39.1028V543.616H37.6968V530.316ZM66.2302 530.316H67.6362V542.4H75.0842V543.616H66.2302V530.316ZM100.219 530.316H101.625V543.616H100.219V530.316ZM134.528 543.73C133.211 543.73 132.02 543.439 130.956 542.856C129.905 542.274 129.075 541.469 128.467 540.443C127.872 539.405 127.574 538.246 127.574 536.966C127.574 535.687 127.872 534.534 128.467 533.508C129.075 532.47 129.911 531.659 130.975 531.076C132.039 530.494 133.23 530.202 134.547 530.202C135.535 530.202 136.447 530.367 137.283 530.696C138.119 531.026 138.828 531.507 139.411 532.14L138.518 533.033C137.479 531.982 136.168 531.456 134.585 531.456C133.534 531.456 132.577 531.697 131.716 532.178C130.855 532.66 130.177 533.318 129.683 534.154C129.202 534.99 128.961 535.928 128.961 536.966C128.961 538.005 129.202 538.942 129.683 539.778C130.177 540.614 130.855 541.273 131.716 541.754C132.577 542.236 133.534 542.476 134.585 542.476C136.181 542.476 137.492 541.944 138.518 540.88L139.411 541.773C138.828 542.407 138.113 542.894 137.264 543.236C136.428 543.566 135.516 543.73 134.528 543.73ZM170.744 543.73C169.427 543.73 168.23 543.439 167.153 542.856C166.089 542.261 165.253 541.45 164.645 540.424C164.05 539.398 163.752 538.246 163.752 536.966C163.752 535.687 164.05 534.534 164.645 533.508C165.253 532.482 166.089 531.678 167.153 531.095C168.23 530.5 169.427 530.202 170.744 530.202C172.061 530.202 173.246 530.494 174.297 531.076C175.361 531.659 176.197 532.47 176.805 533.508C177.413 534.534 177.717 535.687 177.717 536.966C177.717 538.246 177.413 539.405 176.805 540.443C176.197 541.469 175.361 542.274 174.297 542.856C173.246 543.439 172.061 543.73 170.744 543.73ZM170.744 542.476C171.795 542.476 172.745 542.242 173.594 541.773C174.443 541.292 175.108 540.633 175.589 539.797C176.07 538.949 176.311 538.005 176.311 536.966C176.311 535.928 176.07 534.99 175.589 534.154C175.108 533.306 174.443 532.647 173.594 532.178C172.745 531.697 171.795 531.456 170.744 531.456C169.693 531.456 168.736 531.697 167.875 532.178C167.026 532.647 166.355 533.306 165.861 534.154C165.38 534.99 165.139 535.928 165.139 536.966C165.139 538.005 165.38 538.949 165.861 539.797C166.355 540.633 167.026 541.292 167.875 541.773C168.736 542.242 169.693 542.476 170.744 542.476ZM214.784 530.316V543.616H213.625L205.075 532.824V543.616H203.669V530.316H204.828L213.397 541.108V530.316H214.784Z" fill="#2DA7FF"/>
<path d="M-4.6516 306.699V323.499H-8.5396V309.819H-11.8996V306.699H-4.6516ZM13.6508 319.971H10.9148V323.499H7.12284V319.971H-1.92516V317.355L5.99484 306.699H10.0748L2.73084 316.803H7.24284V313.659H10.9148V316.803H13.6508V319.971Z" fill="#2DA7FF"/>
</g>
<defs>
<filter id="filter0_d" x="273" y="-26" width="933.012" height="933.012" filterUnits="userSpaceOnUse" color-interpolation-filters="sRGB">
<feFlood flood-opacity="0" result="BackgroundImageFix"/>
<feColorMatrix in="SourceAlpha" type="matrix" values="0 0 0 0 0 0 0 0 0 0 0 0 0 0 0 0 0 0 127 0"/>
<feOffset/>
<feGaussianBlur stdDeviation="29.5"/>
<feColorMatrix type="matrix" values="0 0 0 0 0 0 0 0 0 0 0 0 0 0 0 0 0 0 0.47 0"/>
<feBlend mode="normal" in2="BackgroundImageFix" result="effect1_dropShadow"/>
<feBlend mode="normal" in="SourceGraphic" in2="effect1_dropShadow" result="shape"/>
</filter>
<clipPath id="clip0">
<rect width="1440" height="855" fill="white"/>
</clipPath>
</defs>
</svg>
