<svg width="1440" height="427" viewBox="0 0 1440 427" fill="none" xmlns="http://www.w3.org/2000/svg">
<rect width="1440" height="427" fill="white"/>
<path fill-rule="evenodd" clip-rule="evenodd" d="M1440 80.6745C1394.03 71.8184 1332.77 94.0508 1268.77 139.947C1199.79 67.5837 1128.07 33.5031 1075.96 57.3979C1023.85 81.2928 1002.88 157.883 1012.71 257.367C915.556 280.918 850.178 325.993 844.818 383.067C843.431 397.837 846.143 412.566 852.503 427H877.131C868.685 412.284 865.488 398.259 866.722 385.124C868.35 367.781 877.856 350.354 897.005 333.639C916.274 316.82 944.334 301.675 980.069 289.618C991.2 285.862 1002.98 282.439 1015.34 279.375C1020.69 317.8 1030.36 359.131 1044.32 401.803C1039.68 410.231 1035.24 418.635 1031.01 427H1076.46C1073.58 419.311 1070.85 411.658 1068.26 404.052C1082.15 379.531 1097.85 354.776 1115.31 330.185C1132.76 305.594 1150.95 282.603 1169.51 261.4C1197.69 261.168 1226.98 262.388 1257 265.207C1287.03 268.027 1316.03 272.282 1343.67 277.757C1357.96 302.045 1371.55 328.02 1384.12 355.43C1395.16 379.505 1404.85 403.453 1413.2 427H1440V392.184C1437.02 398.334 1433.93 404.515 1430.71 410.721C1422.89 389.415 1414.03 367.865 1404.12 346.26C1394.21 324.655 1383.67 303.876 1372.62 284.048C1396.34 289.67 1418.88 296.199 1440 303.481V280.256C1414.24 271.7 1386.64 264.256 1357.59 258.145C1334.37 219.721 1309.35 185.427 1283.73 156.298C1294.12 148.931 1304.4 142.24 1314.5 136.255C1346.96 117.042 1376.74 105.661 1402.06 102.034C1416.59 99.9521 1429.2 100.462 1440 103.206V80.6745ZM1277.42 371.099C1295.92 384.228 1304.7 405.956 1302.18 427H1183.5C1181.78 412.762 1185.14 397.862 1194.1 385.244C1213.2 358.328 1250.51 351.995 1277.42 371.099ZM1328.18 252.505C1308.27 221.377 1287.28 193.486 1266 169.452C1240.61 189.103 1214.8 212.598 1189.43 239.475C1212.13 239.825 1235.4 241.081 1259.06 243.304C1282.72 245.526 1305.82 248.624 1328.18 252.505ZM1159.49 239.541C1189.46 206.112 1220.42 177.075 1251.02 153.226C1242.19 144.054 1233.33 135.566 1224.52 127.804C1196.21 102.885 1169.06 86.1569 1144.86 77.8792C1120.81 69.6526 1100.96 70.1348 1085.13 77.3955C1069.3 84.6563 1055.98 99.3804 1046.52 122.973C1037.01 146.713 1031.97 178.199 1032.38 215.911C1032.51 227.658 1033.17 239.905 1034.35 252.584C1072.39 244.957 1114.6 240.442 1159.49 239.541ZM1036.88 274.519C1068.33 268.104 1102.98 263.873 1139.9 262.192C1125.35 279.617 1111.12 298.069 1097.37 317.452C1083.61 336.834 1070.89 356.357 1059.24 375.835C1048.64 340.433 1041.2 306.33 1036.88 274.519Z" fill="black" fill-opacity="0.26"/>
</svg>
