<svg width="2726" height="982" viewBox="0 0 2726 982" fill="none" xmlns="http://www.w3.org/2000/svg">
<g clip-path="url(#clip0)">
<g filter="url(#filter0_d)">
<rect x="1144.5" y="119.663" width="608.357" height="608.357" rx="54" transform="rotate(14.5507 1144.5 119.663)" fill="white"/>
<rect x="1109.14" y="59.5115" width="707.034" height="707.034" rx="89" transform="rotate(14.5507 1109.14 59.5115)" stroke="white" stroke-width="24"/>
<path d="M1321.78 549.768L1351.89 432.615L1269.43 514.162L1249.08 508.88L1216.32 400.104L1186.58 514.675L1144.21 503.677L1194.86 308.543L1232.21 318.239L1273.77 458.458L1377.17 355.864L1414.24 365.487L1364.15 560.766L1321.78 549.768ZM1478.17 592.74C1462.37 588.64 1449 581.697 1438.05 571.913C1427.33 561.99 1419.96 550.259 1415.94 536.718C1411.92 523.177 1411.84 508.973 1415.7 494.105C1419.55 479.238 1426.53 466.867 1436.64 456.992C1446.74 447.117 1458.86 440.543 1473 437.27C1487.37 433.86 1502.46 434.205 1518.25 438.305C1534.05 442.405 1547.3 449.417 1558.02 459.339C1568.78 469.075 1576.18 480.714 1580.2 494.255C1584.22 507.796 1584.3 522 1580.44 536.868C1576.59 551.735 1569.61 564.106 1559.5 573.981C1549.4 583.856 1537.26 590.523 1523.07 593.981C1508.93 597.254 1493.96 596.84 1478.17 592.74ZM1487.43 557.058C1498.58 559.952 1508.65 558.599 1517.64 552.999C1526.87 547.26 1533.12 538.073 1536.4 525.435C1539.68 512.798 1538.66 501.822 1533.34 492.507C1528.26 483.055 1520.14 476.881 1508.99 473.987C1497.84 471.093 1487.65 472.515 1478.43 478.253C1469.25 483.805 1463.02 492.9 1459.74 505.537C1456.46 518.175 1457.45 529.244 1462.72 538.744C1468.04 548.059 1476.28 554.164 1487.43 557.058Z" fill="#00126F"/>
<path d="M1124.97 623.33L1128.02 611.477L1119.58 619.824L1118.52 619.547L1115.18 608.218L1112.13 619.996L1109.9 619.417L1114.12 603.156L1116.02 603.65L1119.84 616.84L1129.5 607.148L1131.4 607.642L1127.2 623.909L1124.97 623.33ZM1165.51 634.05C1163.87 633.624 1162.48 632.884 1161.35 631.83C1160.22 630.761 1159.44 629.492 1159.01 628.025C1158.6 626.563 1158.6 625.049 1159 623.485C1159.41 621.921 1160.15 620.6 1161.22 619.523C1162.31 618.45 1163.6 617.728 1165.11 617.358C1166.61 616.972 1168.18 616.991 1169.83 617.418C1171.45 617.84 1172.83 618.585 1173.96 619.655C1175.09 620.709 1175.86 621.968 1176.27 623.43C1176.69 624.878 1176.7 626.391 1176.29 627.971C1175.88 629.551 1175.13 630.879 1174.06 631.956C1172.99 633.017 1171.71 633.741 1170.2 634.127C1168.7 634.498 1167.14 634.472 1165.51 634.05ZM1166.05 631.983C1167.24 632.292 1168.38 632.299 1169.46 632.002C1170.56 631.709 1171.51 631.161 1172.29 630.357C1173.1 629.541 1173.66 628.545 1173.96 627.368C1174.27 626.191 1174.27 625.058 1173.95 623.968C1173.66 622.868 1173.1 621.921 1172.28 621.13C1171.48 620.343 1170.48 619.795 1169.29 619.485C1168.1 619.176 1166.94 619.165 1165.83 619.454C1164.73 619.747 1163.77 620.301 1162.97 621.116C1162.18 621.92 1161.63 622.911 1161.33 624.088C1161.02 625.265 1161.01 626.404 1161.31 627.505C1161.62 628.594 1162.19 629.534 1163 630.326C1163.84 631.121 1164.85 631.673 1166.05 631.983ZM1208.08 627.545L1210.4 628.148L1206.71 642.388L1215.51 644.674L1214.99 646.695L1203.86 643.807L1208.08 627.545ZM1249.77 649.723L1248.31 655.344L1246.01 654.747L1247.48 649.079L1243.77 636.81L1246.26 637.455L1249.24 647.378L1256.69 640.163L1258.99 640.759L1249.77 649.723ZM1296.12 658.752C1296.99 659.261 1297.61 659.934 1297.97 660.772C1298.34 661.594 1298.39 662.531 1298.11 663.584C1297.75 664.994 1296.93 665.939 1295.67 666.421C1294.42 666.906 1292.78 666.886 1290.75 666.359L1282.99 664.345L1287.21 648.084L1294.5 649.977C1296.36 650.46 1297.7 651.203 1298.51 652.208C1299.34 653.216 1299.58 654.379 1299.24 655.695C1299.02 656.547 1298.63 657.231 1298.07 657.745C1297.52 658.264 1296.87 658.6 1296.12 658.752ZM1289.04 650.569L1287.69 655.772L1292.46 657.008C1293.65 657.318 1294.62 657.338 1295.37 657.069C1296.13 656.789 1296.63 656.223 1296.85 655.371C1297.07 654.519 1296.91 653.792 1296.37 653.19C1295.85 652.576 1295 652.114 1293.81 651.805L1289.04 650.569ZM1291.14 664.453C1292.46 664.795 1293.51 664.835 1294.29 664.575C1295.06 664.314 1295.57 663.719 1295.81 662.79C1296.28 660.978 1295.2 659.728 1292.55 659.041L1287.2 657.654L1285.8 663.066L1291.14 664.453ZM1330.92 659.431L1337.78 661.21C1339.5 661.656 1340.93 662.392 1342.09 663.419C1343.24 664.447 1344.02 665.674 1344.43 667.102C1344.86 668.518 1344.86 670.024 1344.45 671.619C1344.03 673.214 1343.29 674.535 1342.23 675.581C1341.18 676.616 1339.91 677.301 1338.4 677.636C1336.89 677.972 1335.28 677.917 1333.56 677.471L1326.7 675.692L1330.92 659.431ZM1333.94 675.413C1335.26 675.755 1336.48 675.799 1337.6 675.545C1338.74 675.296 1339.7 674.784 1340.48 674.011C1341.26 673.223 1341.81 672.224 1342.13 671.016C1342.44 669.808 1342.44 668.677 1342.14 667.623C1341.84 666.553 1341.25 665.632 1340.38 664.859C1339.52 664.091 1338.43 663.536 1337.11 663.194L1332.72 662.055L1329.55 674.274L1333.94 675.413ZM1384.36 688.499L1383.83 690.52L1372.03 687.457L1376.25 671.196L1387.73 674.174L1387.2 676.195L1378.05 673.82L1376.75 678.814L1384.91 680.931L1384.39 682.905L1376.24 680.789L1374.88 686.039L1384.36 688.499ZM1431.93 685.648L1427.71 701.909L1425.81 701.415L1419.2 686.756L1416.05 698.883L1413.73 698.28L1417.95 682.018L1419.85 682.513L1426.46 697.172L1429.61 685.045L1431.93 685.648ZM1465.4 711.891C1463.23 711.328 1461.71 710.27 1460.82 708.718C1459.93 707.165 1459.79 705.228 1460.39 702.904L1462.79 693.659L1465.12 694.262L1462.74 703.415C1461.84 706.899 1462.91 709.037 1465.96 709.829C1467.45 710.215 1468.7 710.085 1469.71 709.438C1470.72 708.776 1471.46 707.562 1471.92 705.796L1474.29 696.644L1476.55 697.228L1474.15 706.474C1473.54 708.813 1472.47 710.445 1470.94 711.37C1469.42 712.28 1467.57 712.453 1465.4 711.891ZM1518.3 725.422L1521.35 713.569L1512.91 721.916L1511.84 721.639L1508.51 710.31L1505.45 722.088L1503.22 721.509L1507.44 705.248L1509.35 705.742L1513.16 718.932L1522.82 709.24L1524.73 709.734L1520.53 726.001L1518.3 725.422Z" fill="#00126F"/>
<path d="M1225.1 221.309L1219.8 219.934L1218.03 226.764L1210.69 224.859L1212.46 218.029L1194.94 213.483L1196.26 208.418L1216.94 191.77L1224.84 193.82L1205.55 209.689L1214.28 211.957L1215.86 205.87L1222.97 207.715L1221.39 213.802L1226.69 215.176L1225.1 221.309ZM1251.37 228.874L1249.78 235.007L1225.21 228.627L1226.47 223.749L1242.09 215.157C1243.75 214.233 1244.93 213.382 1245.63 212.605C1246.34 211.796 1246.81 210.943 1247.04 210.044C1247.38 208.744 1247.18 207.636 1246.46 206.721C1245.78 205.784 1244.59 205.094 1242.88 204.652C1241.46 204.282 1240.1 204.227 1238.81 204.487C1237.53 204.716 1236.36 205.272 1235.3 206.155L1230.74 201.201C1232.5 199.642 1234.63 198.625 1237.13 198.15C1239.64 197.645 1242.34 197.766 1245.22 198.514C1247.64 199.141 1249.64 200.09 1251.23 201.362C1252.85 202.611 1253.97 204.092 1254.59 205.805C1255.24 207.495 1255.31 209.315 1254.8 211.267C1254.35 213.032 1253.54 214.593 1252.4 215.949C1251.25 217.304 1249.36 218.696 1246.7 220.124L1237.39 225.244L1251.37 228.874Z" fill="#00126F"/>
</g>
<rect x="1950.74" y="328.724" width="324.553" height="324.553" rx="54" fill="white"/>
<rect x="1902.01" y="280" width="422" height="422" rx="89" stroke="white" stroke-width="24"/>
<path d="M2087.5 502.69H2040.7L2031.77 524.29H2007.86L2052.79 423.49H2075.83L2120.9 524.29H2096.42L2087.5 502.69ZM2080.15 484.978L2064.17 446.386L2048.18 484.978H2080.15ZM2206.42 446.818V524.29H2185.11V515.074C2182.13 518.434 2178.58 521.026 2174.45 522.85C2170.32 524.578 2165.86 525.442 2161.06 525.442C2150.88 525.442 2142.82 522.514 2136.87 516.658C2130.92 510.802 2127.94 502.114 2127.94 490.594V446.818H2150.4V487.282C2150.4 499.762 2155.64 506.002 2166.1 506.002C2171.48 506.002 2175.8 504.274 2179.06 500.818C2182.32 497.266 2183.96 492.034 2183.96 485.122V446.818H2206.42Z" fill="#2DA7FF"/>
<path d="M2061.59 586.966H2062.93V592.039C2062.31 592.584 2061.58 593.002 2060.73 593.293C2059.88 593.585 2058.99 593.73 2058.05 593.73C2056.72 593.73 2055.52 593.439 2054.46 592.856C2053.4 592.274 2052.56 591.469 2051.95 590.443C2051.34 589.405 2051.04 588.246 2051.04 586.966C2051.04 585.687 2051.34 584.534 2051.95 583.508C2052.56 582.47 2053.4 581.659 2054.46 581.076C2055.52 580.494 2056.73 580.202 2058.07 580.202C2059.08 580.202 2060.01 580.367 2060.86 580.696C2061.71 581.013 2062.43 581.488 2063.01 582.121L2062.14 583.014C2061.09 581.976 2059.75 581.456 2058.13 581.456C2057.05 581.456 2056.08 581.697 2055.2 582.178C2054.34 582.647 2053.66 583.306 2053.17 584.154C2052.67 584.99 2052.43 585.928 2052.43 586.966C2052.43 588.005 2052.67 588.942 2053.17 589.778C2053.66 590.614 2054.34 591.273 2055.2 591.754C2056.06 592.236 2057.03 592.476 2058.11 592.476C2059.48 592.476 2060.64 592.134 2061.59 591.45V586.966ZM2095.53 593.73C2094.21 593.73 2093.01 593.439 2091.94 592.856C2090.87 592.261 2090.04 591.45 2089.43 590.424C2088.83 589.398 2088.54 588.246 2088.54 586.966C2088.54 585.687 2088.83 584.534 2089.43 583.508C2090.04 582.482 2090.87 581.678 2091.94 581.095C2093.01 580.5 2094.21 580.202 2095.53 580.202C2096.85 580.202 2098.03 580.494 2099.08 581.076C2100.14 581.659 2100.98 582.47 2101.59 583.508C2102.2 584.534 2102.5 585.687 2102.5 586.966C2102.5 588.246 2102.2 589.405 2101.59 590.443C2100.98 591.469 2100.14 592.274 2099.08 592.856C2098.03 593.439 2096.85 593.73 2095.53 593.73ZM2095.53 592.476C2096.58 592.476 2097.53 592.242 2098.38 591.773C2099.23 591.292 2099.89 590.633 2100.37 589.797C2100.85 588.949 2101.09 588.005 2101.09 586.966C2101.09 585.928 2100.85 584.99 2100.37 584.154C2099.89 583.306 2099.23 582.647 2098.38 582.178C2097.53 581.697 2096.58 581.456 2095.53 581.456C2094.48 581.456 2093.52 581.697 2092.66 582.178C2091.81 582.647 2091.14 583.306 2090.64 584.154C2090.16 584.99 2089.92 585.928 2089.92 586.966C2089.92 588.005 2090.16 588.949 2090.64 589.797C2091.14 590.633 2091.81 591.292 2092.66 591.773C2093.52 592.242 2094.48 592.476 2095.53 592.476ZM2128.45 580.316H2129.86V592.4H2137.31V593.616H2128.45V580.316ZM2162.44 580.316H2167.86C2169.26 580.316 2170.5 580.601 2171.58 581.171C2172.66 581.729 2173.49 582.514 2174.09 583.527C2174.68 584.528 2174.98 585.674 2174.98 586.966C2174.98 588.258 2174.68 589.411 2174.09 590.424C2173.49 591.425 2172.66 592.21 2171.58 592.78C2170.5 593.338 2169.26 593.616 2167.86 593.616H2162.44V580.316ZM2167.78 592.4C2168.95 592.4 2169.96 592.172 2170.84 591.716C2171.71 591.248 2172.39 590.608 2172.87 589.797C2173.35 588.974 2173.59 588.03 2173.59 586.966C2173.59 585.902 2173.35 584.965 2172.87 584.154C2172.39 583.331 2171.71 582.691 2170.84 582.235C2169.96 581.767 2168.95 581.532 2167.78 581.532H2163.85V592.4H2167.78Z" fill="#2DA7FF"/>
<path d="M2003.92 356.7V359.22L1997.68 373.5H1993.46L1999.48 359.868H1993.92V362.604H1990.46V356.7H2003.92ZM2011.56 356.412C2013.91 356.412 2015.75 357.132 2017.08 358.572C2018.41 359.996 2019.07 362.052 2019.07 364.74C2019.07 366.644 2018.71 368.276 2017.99 369.636C2017.29 370.996 2016.29 372.028 2014.99 372.732C2013.69 373.436 2012.2 373.788 2010.5 373.788C2009.61 373.788 2008.75 373.692 2007.93 373.5C2007.12 373.292 2006.42 373.004 2005.85 372.636L2007.29 369.78C2008.1 370.34 2009.15 370.62 2010.43 370.62C2011.85 370.62 2012.98 370.204 2013.81 369.372C2014.65 368.524 2015.09 367.308 2015.16 365.724C2014.15 366.732 2012.76 367.236 2010.98 367.236C2009.91 367.236 2008.93 367.02 2008.05 366.588C2007.17 366.156 2006.48 365.548 2005.97 364.764C2005.45 363.964 2005.2 363.044 2005.2 362.004C2005.2 360.884 2005.48 359.9 2006.04 359.052C2006.6 358.204 2007.36 357.556 2008.32 357.108C2009.29 356.644 2010.37 356.412 2011.56 356.412ZM2011.85 364.332C2012.69 364.332 2013.38 364.1 2013.91 363.636C2014.45 363.156 2014.73 362.548 2014.73 361.812C2014.73 361.076 2014.46 360.476 2013.93 360.012C2013.42 359.548 2012.71 359.316 2011.8 359.316C2010.97 359.316 2010.29 359.54 2009.76 359.988C2009.25 360.436 2008.99 361.044 2008.99 361.812C2008.99 362.58 2009.25 363.196 2009.76 363.66C2010.29 364.108 2010.98 364.332 2011.85 364.332Z" fill="#2DA7FF"/>
<rect x="2516.74" y="328.724" width="324.553" height="324.553" rx="54" fill="white"/>
<rect x="2468.01" y="280" width="422" height="422" rx="89" stroke="white" stroke-width="24"/>
<path d="M2652.46 524L2633.02 495.92H2631.87H2611.57V524H2588.24V423.2H2631.87C2640.8 423.2 2648.53 424.688 2655.05 427.664C2661.68 430.64 2666.77 434.864 2670.32 440.336C2673.87 445.808 2675.65 452.288 2675.65 459.776C2675.65 467.264 2673.82 473.744 2670.17 479.216C2666.62 484.592 2661.53 488.72 2654.91 491.6L2677.52 524H2652.46ZM2652.03 459.776C2652.03 454.112 2650.21 449.792 2646.56 446.816C2642.91 443.744 2637.58 442.208 2630.57 442.208H2611.57V477.344H2630.57C2637.58 477.344 2642.91 475.808 2646.56 472.736C2650.21 469.664 2652.03 465.344 2652.03 459.776ZM2739.63 445.376C2749.23 445.376 2756.96 448.256 2762.82 454.016C2768.77 459.776 2771.74 468.32 2771.74 479.648V524H2749.28V483.104C2749.28 476.96 2747.94 472.4 2745.25 469.424C2742.56 466.352 2738.67 464.816 2733.58 464.816C2727.92 464.816 2723.41 466.592 2720.05 470.144C2716.69 473.6 2715.01 478.784 2715.01 485.696V524H2692.54V446.528H2714V455.6C2716.98 452.336 2720.67 449.84 2725.09 448.112C2729.5 446.288 2734.35 445.376 2739.63 445.376Z" fill="#2DA7FF"/>
<path d="M2607.44 594L2604.4 589.725C2604.06 589.763 2603.7 589.782 2603.34 589.782H2599.76V594H2598.36V580.7H2603.34C2605.03 580.7 2606.36 581.105 2607.33 581.916C2608.29 582.727 2608.77 583.841 2608.77 585.26C2608.77 586.299 2608.5 587.179 2607.97 587.901C2607.45 588.61 2606.7 589.123 2605.73 589.44L2608.98 594H2607.44ZM2603.3 588.585C2604.61 588.585 2605.62 588.294 2606.32 587.711C2607.02 587.128 2607.36 586.311 2607.36 585.26C2607.36 584.183 2607.02 583.36 2606.32 582.79C2605.62 582.207 2604.61 581.916 2603.3 581.916H2599.76V588.585H2603.3ZM2643.23 590.447H2635.82L2634.22 594H2632.76L2638.84 580.7H2640.23L2646.31 594H2644.82L2643.23 590.447ZM2642.72 589.307L2639.52 582.163L2636.33 589.307H2642.72ZM2671.31 580.7H2676.72C2678.13 580.7 2679.37 580.985 2680.45 581.555C2681.52 582.112 2682.36 582.898 2682.95 583.911C2683.55 584.912 2683.85 586.058 2683.85 587.35C2683.85 588.642 2683.55 589.795 2682.95 590.808C2682.36 591.809 2681.52 592.594 2680.45 593.164C2679.37 593.721 2678.13 594 2676.72 594H2671.31V580.7ZM2676.65 592.784C2677.81 592.784 2678.83 592.556 2679.71 592.1C2680.58 591.631 2681.26 590.992 2681.74 590.181C2682.22 589.358 2682.46 588.414 2682.46 587.35C2682.46 586.286 2682.22 585.349 2681.74 584.538C2681.26 583.715 2680.58 583.075 2679.71 582.619C2678.83 582.15 2677.81 581.916 2676.65 581.916H2672.71V592.784H2676.65ZM2715.62 594.114C2714.3 594.114 2713.1 593.823 2712.03 593.24C2710.96 592.645 2710.13 591.834 2709.52 590.808C2708.92 589.782 2708.63 588.629 2708.63 587.35C2708.63 586.071 2708.92 584.918 2709.52 583.892C2710.13 582.866 2710.96 582.062 2712.03 581.479C2713.1 580.884 2714.3 580.586 2715.62 580.586C2716.94 580.586 2718.12 580.877 2719.17 581.46C2720.24 582.043 2721.07 582.853 2721.68 583.892C2722.29 584.918 2722.59 586.071 2722.59 587.35C2722.59 588.629 2722.29 589.788 2721.68 590.827C2721.07 591.853 2720.24 592.657 2719.17 593.24C2718.12 593.823 2716.94 594.114 2715.62 594.114ZM2715.62 592.86C2716.67 592.86 2717.62 592.626 2718.47 592.157C2719.32 591.676 2719.98 591.017 2720.46 590.181C2720.94 589.332 2721.19 588.389 2721.19 587.35C2721.19 586.311 2720.94 585.374 2720.46 584.538C2719.98 583.689 2719.32 583.031 2718.47 582.562C2717.62 582.081 2716.67 581.84 2715.62 581.84C2714.57 581.84 2713.61 582.081 2712.75 582.562C2711.9 583.031 2711.23 583.689 2710.74 584.538C2710.25 585.374 2710.01 586.311 2710.01 587.35C2710.01 588.389 2710.25 589.332 2710.74 590.181C2711.23 591.017 2711.9 591.676 2712.75 592.157C2713.61 592.626 2714.57 592.86 2715.62 592.86ZM2759.66 580.7V594H2758.5L2749.95 583.208V594H2748.54V580.7H2749.7L2758.27 591.492V580.7H2759.66Z" fill="#2DA7FF"/>
<path d="M2567.79 364.668C2568.62 365.084 2569.25 365.628 2569.68 366.3C2570.13 366.972 2570.35 367.748 2570.35 368.628C2570.35 369.668 2570.06 370.58 2569.47 371.364C2568.87 372.132 2568.04 372.732 2566.97 373.164C2565.9 373.58 2564.66 373.788 2563.25 373.788C2561.84 373.788 2560.6 373.58 2559.53 373.164C2558.47 372.732 2557.65 372.132 2557.06 371.364C2556.48 370.58 2556.19 369.668 2556.19 368.628C2556.19 367.748 2556.41 366.972 2556.84 366.3C2557.29 365.628 2557.92 365.084 2558.74 364.668C2558.11 364.284 2557.63 363.804 2557.3 363.228C2556.96 362.636 2556.79 361.964 2556.79 361.212C2556.79 360.236 2557.07 359.388 2557.61 358.668C2558.15 357.948 2558.91 357.396 2559.89 357.012C2560.87 356.612 2561.99 356.412 2563.25 356.412C2564.53 356.412 2565.66 356.612 2566.63 357.012C2567.63 357.396 2568.39 357.948 2568.94 358.668C2569.48 359.388 2569.75 360.236 2569.75 361.212C2569.75 361.964 2569.59 362.636 2569.25 363.228C2568.91 363.804 2568.43 364.284 2567.79 364.668ZM2563.25 359.268C2562.47 359.268 2561.83 359.46 2561.35 359.844C2560.89 360.212 2560.66 360.724 2560.66 361.38C2560.66 362.02 2560.89 362.524 2561.35 362.892C2561.82 363.26 2562.45 363.444 2563.25 363.444C2564.05 363.444 2564.69 363.26 2565.17 362.892C2565.65 362.524 2565.89 362.02 2565.89 361.38C2565.89 360.724 2565.65 360.212 2565.17 359.844C2564.69 359.46 2564.05 359.268 2563.25 359.268ZM2563.25 370.932C2564.23 370.932 2564.99 370.716 2565.55 370.284C2566.13 369.836 2566.42 369.244 2566.42 368.508C2566.42 367.772 2566.13 367.188 2565.55 366.756C2564.99 366.324 2564.23 366.108 2563.25 366.108C2562.29 366.108 2561.53 366.324 2560.97 366.756C2560.41 367.188 2560.13 367.772 2560.13 368.508C2560.13 369.26 2560.41 369.852 2560.97 370.284C2561.53 370.716 2562.29 370.932 2563.25 370.932ZM2580.22 362.964C2581.29 362.964 2582.27 363.18 2583.15 363.612C2584.03 364.044 2584.73 364.66 2585.24 365.46C2585.75 366.244 2586.01 367.156 2586.01 368.196C2586.01 369.316 2585.73 370.3 2585.17 371.148C2584.61 371.996 2583.84 372.652 2582.86 373.116C2581.9 373.564 2580.83 373.788 2579.65 373.788C2577.29 373.788 2575.45 373.068 2574.13 371.628C2572.8 370.188 2572.13 368.132 2572.13 365.46C2572.13 363.556 2572.49 361.924 2573.21 360.564C2573.93 359.204 2574.93 358.172 2576.21 357.468C2577.51 356.764 2579.01 356.412 2580.7 356.412C2581.6 356.412 2582.45 356.516 2583.27 356.724C2584.1 356.916 2584.81 357.196 2585.38 357.564L2583.94 360.42C2583.11 359.86 2582.06 359.58 2580.8 359.58C2579.37 359.58 2578.25 359.996 2577.41 360.828C2576.58 361.66 2576.13 362.868 2576.07 364.452C2577.06 363.46 2578.45 362.964 2580.22 362.964ZM2579.43 370.884C2580.26 370.884 2580.93 370.66 2581.45 370.212C2581.97 369.764 2582.24 369.156 2582.24 368.388C2582.24 367.62 2581.97 367.012 2581.45 366.564C2580.93 366.1 2580.25 365.868 2579.38 365.868C2578.53 365.868 2577.84 366.108 2577.29 366.588C2576.75 367.052 2576.48 367.652 2576.48 368.388C2576.48 369.124 2576.74 369.724 2577.27 370.188C2577.8 370.652 2578.52 370.884 2579.43 370.884Z" fill="#2DA7FF"/>
<rect x="449.724" y="328.724" width="324.553" height="324.553" rx="54" fill="white"/>
<rect x="401" y="280" width="422" height="422" rx="89" stroke="white" stroke-width="24"/>
<path d="M589.502 526.018C581.534 526.018 573.806 524.962 566.318 522.85C558.926 520.642 552.974 517.81 548.462 514.354L556.382 496.786C560.702 499.954 565.838 502.498 571.79 504.418C577.742 506.338 583.694 507.298 589.646 507.298C596.27 507.298 601.166 506.338 604.334 504.418C607.502 502.402 609.086 499.762 609.086 496.498C609.086 494.098 608.126 492.13 606.206 490.594C604.382 488.962 601.982 487.666 599.006 486.706C596.126 485.746 592.19 484.69 587.198 483.538C579.518 481.714 573.23 479.89 568.334 478.066C563.438 476.242 559.214 473.314 555.662 469.282C552.206 465.25 550.478 459.874 550.478 453.154C550.478 447.298 552.062 442.018 555.23 437.314C558.398 432.514 563.15 428.722 569.486 425.938C575.918 423.154 583.742 421.762 592.958 421.762C599.39 421.762 605.678 422.53 611.822 424.066C617.966 425.602 623.342 427.81 627.95 430.69L620.75 448.402C611.438 443.122 602.126 440.482 592.814 440.482C586.286 440.482 581.438 441.538 578.27 443.65C575.198 445.762 573.662 448.546 573.662 452.002C573.662 455.458 575.438 458.05 578.99 459.778C582.638 461.41 588.158 463.042 595.55 464.674C603.23 466.498 609.518 468.322 614.414 470.146C619.31 471.97 623.486 474.85 626.942 478.786C630.494 482.722 632.27 488.05 632.27 494.77C632.27 500.53 630.638 505.81 627.374 510.61C624.206 515.314 619.406 519.058 612.974 521.842C606.542 524.626 598.718 526.018 589.502 526.018ZM646.626 446.818H669.09V524.29H646.626V446.818ZM657.858 436.018C653.73 436.018 650.37 434.818 647.778 432.418C645.186 430.018 643.89 427.042 643.89 423.49C643.89 419.938 645.186 416.962 647.778 414.562C650.37 412.162 653.73 410.962 657.858 410.962C661.986 410.962 665.346 412.114 667.938 414.418C670.53 416.722 671.826 419.602 671.826 423.058C671.826 426.802 670.53 429.922 667.938 432.418C665.346 434.818 661.986 436.018 657.858 436.018Z" fill="#2DA7FF"/>
<path d="M509.875 593.73C508.887 593.73 507.937 593.572 507.025 593.255C506.125 592.939 505.429 592.521 504.935 592.001L505.486 590.918C505.967 591.4 506.607 591.792 507.405 592.096C508.203 592.388 509.026 592.533 509.875 592.533C511.065 592.533 511.958 592.318 512.554 591.887C513.149 591.444 513.447 590.874 513.447 590.177C513.447 589.645 513.282 589.221 512.953 588.904C512.636 588.588 512.243 588.347 511.775 588.182C511.306 588.005 510.654 587.815 509.818 587.612C508.817 587.359 508.019 587.118 507.424 586.89C506.828 586.65 506.315 586.289 505.885 585.807C505.467 585.326 505.258 584.674 505.258 583.85C505.258 583.179 505.435 582.571 505.79 582.026C506.144 581.469 506.689 581.026 507.424 580.696C508.158 580.367 509.07 580.202 510.16 580.202C510.92 580.202 511.661 580.31 512.383 580.525C513.117 580.728 513.751 581.013 514.283 581.38L513.808 582.501C513.25 582.134 512.655 581.862 512.022 581.684C511.388 581.494 510.768 581.399 510.16 581.399C508.994 581.399 508.114 581.627 507.519 582.083C506.936 582.527 506.645 583.103 506.645 583.812C506.645 584.344 506.803 584.775 507.12 585.104C507.449 585.421 507.854 585.668 508.336 585.845C508.83 586.01 509.488 586.194 510.312 586.396C511.287 586.637 512.072 586.878 512.668 587.118C513.276 587.346 513.789 587.701 514.207 588.182C514.625 588.651 514.834 589.291 514.834 590.101C514.834 590.773 514.65 591.387 514.283 591.944C513.928 592.489 513.377 592.926 512.63 593.255C511.882 593.572 510.964 593.73 509.875 593.73ZM540.697 580.316H542.103V593.616H540.697V580.316ZM569.23 580.316H570.636V592.4H578.084V593.616H569.23V580.316ZM603.219 580.316H604.625V593.616H603.219V580.316ZM637.528 593.73C636.211 593.73 635.02 593.439 633.956 592.856C632.905 592.274 632.075 591.469 631.467 590.443C630.872 589.405 630.574 588.246 630.574 586.966C630.574 585.687 630.872 584.534 631.467 583.508C632.075 582.47 632.911 581.659 633.975 581.076C635.039 580.494 636.23 580.202 637.547 580.202C638.535 580.202 639.447 580.367 640.283 580.696C641.119 581.026 641.829 581.507 642.411 582.14L641.518 583.033C640.48 581.982 639.169 581.456 637.585 581.456C636.534 581.456 635.578 581.697 634.716 582.178C633.855 582.66 633.177 583.318 632.683 584.154C632.202 584.99 631.961 585.928 631.961 586.966C631.961 588.005 632.202 588.942 632.683 589.778C633.177 590.614 633.855 591.273 634.716 591.754C635.578 592.236 636.534 592.476 637.585 592.476C639.181 592.476 640.492 591.944 641.518 590.88L642.411 591.773C641.829 592.407 641.113 592.894 640.264 593.236C639.428 593.566 638.516 593.73 637.528 593.73ZM673.744 593.73C672.427 593.73 671.23 593.439 670.153 592.856C669.089 592.261 668.253 591.45 667.645 590.424C667.05 589.398 666.752 588.246 666.752 586.966C666.752 585.687 667.05 584.534 667.645 583.508C668.253 582.482 669.089 581.678 670.153 581.095C671.23 580.5 672.427 580.202 673.744 580.202C675.061 580.202 676.246 580.494 677.297 581.076C678.361 581.659 679.197 582.47 679.805 583.508C680.413 584.534 680.717 585.687 680.717 586.966C680.717 588.246 680.413 589.405 679.805 590.443C679.197 591.469 678.361 592.274 677.297 592.856C676.246 593.439 675.061 593.73 673.744 593.73ZM673.744 592.476C674.795 592.476 675.745 592.242 676.594 591.773C677.443 591.292 678.108 590.633 678.589 589.797C679.07 588.949 679.311 588.005 679.311 586.966C679.311 585.928 679.07 584.99 678.589 584.154C678.108 583.306 677.443 582.647 676.594 582.178C675.745 581.697 674.795 581.456 673.744 581.456C672.693 581.456 671.736 581.697 670.875 582.178C670.026 582.647 669.355 583.306 668.861 584.154C668.38 584.99 668.139 585.928 668.139 586.966C668.139 588.005 668.38 588.949 668.861 589.797C669.355 590.633 670.026 591.292 670.875 591.773C671.736 592.242 672.693 592.476 673.744 592.476ZM717.784 580.316V593.616H716.625L708.075 582.824V593.616H706.669V580.316H707.828L716.397 591.108V580.316H717.784Z" fill="#2DA7FF"/>
<path d="M498.348 356.7V373.5H494.46V359.82H491.1V356.7H498.348ZM516.651 369.972H513.915V373.5H510.123V369.972H501.075V367.356L508.995 356.7H513.075L505.731 366.804H510.243V363.66H513.915V366.804H516.651V369.972Z" fill="#2DA7FF"/>
<rect x="-116.276" y="328.724" width="324.553" height="324.553" rx="54" fill="white"/>
<rect x="-165" y="280" width="422" height="422" rx="89" stroke="white" stroke-width="24"/>
<path d="M46.8296 423.49V524.29H27.6776L-22.5784 463.09V524.29H-45.6184V423.49H-26.3224L23.7896 484.69V423.49H46.8296ZM144.982 485.842C144.982 486.13 144.838 488.146 144.55 491.89H85.9425C86.9985 496.69 89.4945 500.482 93.4305 503.266C97.3665 506.05 102.262 507.442 108.118 507.442C112.15 507.442 115.702 506.866 118.774 505.714C121.942 504.466 124.87 502.546 127.558 499.954L139.51 512.914C132.214 521.266 121.558 525.442 107.542 525.442C98.8065 525.442 91.0785 523.762 84.3585 520.402C77.6385 516.946 72.4545 512.194 68.8065 506.146C65.1585 500.098 63.3345 493.234 63.3345 485.554C63.3345 477.97 65.1105 471.154 68.6625 465.106C72.3105 458.962 77.2545 454.21 83.4945 450.85C89.8305 447.394 96.8865 445.666 104.662 445.666C112.246 445.666 119.11 447.298 125.254 450.562C131.398 453.826 136.198 458.53 139.654 464.674C143.206 470.722 144.982 477.778 144.982 485.842ZM104.806 462.658C99.7185 462.658 95.4465 464.098 91.9905 466.978C88.5345 469.858 86.4225 473.794 85.6545 478.786H123.814C123.046 473.89 120.934 470.002 117.478 467.122C114.022 464.146 109.798 462.658 104.806 462.658Z" fill="#2DA7FF"/>
<path d="M-4.66207 580.316V593.616H-5.82107L-14.3711 582.824V593.616H-15.7771V580.316H-14.6181L-6.04907 591.108V580.316H-4.66207ZM31.884 592.4V593.616H22.479V580.316H31.599V581.532H23.885V586.263H30.763V587.46H23.885V592.4H31.884ZM63.7287 593.73C62.4114 593.73 61.2144 593.439 60.1377 592.856C59.0737 592.261 58.2377 591.45 57.6297 590.424C57.0344 589.398 56.7367 588.246 56.7367 586.966C56.7367 585.687 57.0344 584.534 57.6297 583.508C58.2377 582.482 59.0737 581.678 60.1377 581.095C61.2144 580.5 62.4114 580.202 63.7287 580.202C65.0461 580.202 66.2304 580.494 67.2817 581.076C68.3457 581.659 69.1817 582.47 69.7897 583.508C70.3977 584.534 70.7017 585.687 70.7017 586.966C70.7017 588.246 70.3977 589.405 69.7897 590.443C69.1817 591.469 68.3457 592.274 67.2817 592.856C66.2304 593.439 65.0461 593.73 63.7287 593.73ZM63.7287 592.476C64.7801 592.476 65.7301 592.242 66.5787 591.773C67.4274 591.292 68.0924 590.633 68.5737 589.797C69.0551 588.949 69.2957 588.005 69.2957 586.966C69.2957 585.928 69.0551 584.99 68.5737 584.154C68.0924 583.306 67.4274 582.647 66.5787 582.178C65.7301 581.697 64.7801 581.456 63.7287 581.456C62.6774 581.456 61.7211 581.697 60.8597 582.178C60.0111 582.647 59.3397 583.306 58.8457 584.154C58.3644 584.99 58.1237 585.928 58.1237 586.966C58.1237 588.005 58.3644 588.949 58.8457 589.797C59.3397 590.633 60.0111 591.292 60.8597 591.773C61.7211 592.242 62.6774 592.476 63.7287 592.476ZM107.768 580.316V593.616H106.609L98.0592 582.824V593.616H96.6532V580.316H97.8122L106.381 591.108V580.316H107.768Z" fill="#2DA7FF"/>
</g>
<defs>
<filter id="filter0_d" x="857.881" y="-14.1184" width="1009.25" height="1009.25" filterUnits="userSpaceOnUse" color-interpolation-filters="sRGB">
<feFlood flood-opacity="0" result="BackgroundImageFix"/>
<feColorMatrix in="SourceAlpha" type="matrix" values="0 0 0 0 0 0 0 0 0 0 0 0 0 0 0 0 0 0 127 0"/>
<feOffset/>
<feGaussianBlur stdDeviation="29.5"/>
<feColorMatrix type="matrix" values="0 0 0 0 0 0 0 0 0 0 0 0 0 0 0 0 0 0 0.47 0"/>
<feBlend mode="normal" in2="BackgroundImageFix" result="effect1_dropShadow"/>
<feBlend mode="normal" in="SourceGraphic" in2="effect1_dropShadow" result="shape"/>
</filter>
<clipPath id="clip0">
<rect width="2726" height="982" fill="white"/>
</clipPath>
</defs>
</svg>
